<?xml version="1.0" encoding="UTF-8"?>
<svg id="Capa_2" data-name="Capa 2" xmlns="http://www.w3.org/2000/svg" viewBox="0 0 1394.58 453.86">
  <defs>
    <style>
      .cls-1 {
        fill: #00d9ef;
      }

      .cls-2 {
        fill: #0035c6;
      }
    </style>
  </defs>
  <g id="Capa_1-2" data-name="Capa 1">
    <g>
      <path class="cls-1" d="M826.1,443.13V0h60.14c8.87,0,16.36,3.07,22.48,9.18,6.11,6.12,9.18,13.61,9.18,22.47v411.48h-91.8Z"/>
      <path class="cls-1" d="M1133.13,443.13V81.03h-149.39V0h410.85l-24.06,60.77c-6.75,13.51-16.45,20.26-29.12,20.26h-116.48v362.1h-91.79Z"/>
    </g>
    <path class="cls-2" d="M223.69,453.86h-97.26l22.05-57.06c6.91-13.83,16.86-20.75,29.82-20.75h38.26c21.17,0,38.35-5.19,51.55-15.56,13.18-10.38,19.77-24.85,19.77-43.44,0-17.28-6.38-31.33-19.12-42.14-12.76-10.8-30.15-16.21-52.19-16.21h-88.83l19.45-52.52c6.91-13.83,17.07-20.75,30.47-20.75h29.83c19.02,0,34.79-4.64,47.33-13.94,12.53-9.29,18.8-22.58,18.8-39.87s-6.27-30.57-18.8-39.88c-12.54-9.29-28.31-13.94-47.33-13.94h-113.47v376.06H0V0h213.32C258.26,0,295.11,11.46,323.86,34.36c28.74,22.92,43.12,52.95,43.12,90.13,0,20.75-5.09,39.23-15.24,55.44-10.16,16.21-23.67,29.5-40.52,39.87,21.18,10.38,38.35,24.31,51.55,41.82,13.18,17.51,19.77,37.72,19.77,60.62,0,39.77-14.58,71.64-43.76,95.63-29.17,23.99-67.54,35.99-115.08,35.99Z"/>
    <path class="cls-2" d="M743.9,88.46h-320.11V8.43h373.46l-24.13,59.7c-6.78,13.56-16.52,20.33-29.21,20.33ZM658.78,269.47h-235v-77.49h287.08l-22.86,57.16c-6.78,13.56-16.52,20.32-29.22,20.32ZM745.8,453.02h-322.01v-80.03h373.46l-21.59,59.07c-6.35,13.97-16.31,20.96-29.85,20.96Z"/>
  </g>
</svg>