<?xml version="1.0" encoding="UTF-8"?>
<svg id="Capa_2" data-name="Capa 2" xmlns="http://www.w3.org/2000/svg" viewBox="0 0 945.39 947.89">
  <defs>
    <style>
      .cls-1 {
        fill: #fff;
      }
    </style>
  </defs>
  <g id="Capa_1-2" data-name="Capa 1">
    <g>
      <g>
        <path class="cls-1" d="M717.37,692.05c-1.12,0-2.29-.11-3.47-.34-5.64-1.07-8.27-6.03-9.56-8.54-2.8-.5-5.67-.93-8.47-1.36-6.71-1.01-13.65-2.06-20.29-4.09l-1.48-.45-32.81-46.53c-1.32-1-3.84-1.29-6.5-1.6-2.92-.34-6.23-.72-9.15-2.25l-.97-.51-39.9-56.96c-.2,0-.63,0-.64,0-1.91,0-7.65-.01-11.65-5.37-3.49-4.68-4.14-10.05-1.8-14.73,2.48-4.95,7.95-8.27,13.6-8.27s9.86,2.94,12.24,8.05c2.19,4.72,1.25,8.46.68,10.69-.09.35-.2.8-.26,1.11l37.03,52.4c25,4.79,50.15,8.86,74.49,12.79,1.26.2,2.32.56,3.26.88.9.3,1.61.54,2.2.54h0c.14,0,.28-.01.42-.04.13-.14.3-.32.44-.47,1.18-1.3,3.16-3.47,6.71-4.05,1.02-.17,2.03-.25,3-.25,9.14,0,13.92,7.14,13.92,14.18s-4.9,14.52-13.99,14.52c-8.04,0-11.14-5.88-12.63-8.71-.09-.16-.18-.35-.28-.53l-48.8-7.91,20.85,29.49,23.63,4.51c.08-.07.16-.14.23-.21,1.94-1.72,5.18-4.6,10.25-4.6,9.1,0,13.86,7.11,13.86,14.12,0,7-4.97,14.45-14.18,14.45Z"/>
        <path d="M584.31,545.57c3.21,0,6.37,1.59,8.16,5.45,2.61,5.62-1.04,8.63.26,11.69l38.65,54.69c25.37,4.9,50.89,9.03,76.4,13.16,2.16.35,3.9,1.48,6.17,1.48.65,0,1.35-.09,2.11-.32,1.92-.58,2.79-3.74,6.19-4.3.8-.13,1.56-.19,2.28-.19,12.82,0,12.32,19.7-.07,19.7h0c-7.91,0-8.31-8.06-10.63-8.92l-60.94-9.88,28.08,39.73,27.06,5.16c1.88-.1,4.39-5.04,9.68-5.04h0c12.66.01,12.38,19.57-.33,19.57-.83,0-1.7-.08-2.64-.26-5.16-.98-6.52-7.65-7.72-8.19-9.99-1.92-20.47-2.72-30.12-5.67l-32.23-45.71c-4.11-3.93-11.91-2.19-16.93-4.8l-40.46-57.77c-.22-.19-.67-.23-1.28-.23-.51,0-1.14.03-1.83.03-2.41,0-5.66-.36-8.05-3.56-6.11-8.2,1.18-15.81,8.2-15.81M584.31,536.57h0c-7.32,0-14.4,4.32-17.62,10.75-3.14,6.26-2.33,13.35,2.21,19.44,3.23,4.33,7.77,6.72,13.51,7.12l37.96,54.2,1.26,1.8,1.95,1.02c3.65,1.91,7.57,2.36,10.71,2.72,1.25.15,3.04.35,3.97.62l31.29,44.37,1.78,2.52,2.95.9c6.95,2.12,14.06,3.2,20.93,4.23,2.14.32,4.2.63,6.22.97,1.89,3.22,5.35,7.7,11.64,8.89,1.46.28,2.91.42,4.31.42,10.64,0,18.67-8.14,18.68-18.94,0-10.61-7.88-18.61-18.34-18.62-5.48,0-9.38,2.53-11.79,4.48l-19.71-3.76-13.61-19.26,36.03,5.84c2.06,3.59,6.5,9.64,15.81,9.65,10.55,0,18.5-8.18,18.5-19.02s-7.92-18.69-18.42-18.69c-1.21,0-2.47.1-3.73.31-3.81.62-6.36,2.52-7.98,4.07-.95-.32-2.17-.7-3.61-.93-23.72-3.84-48.22-7.8-72.58-12.43l-34.81-49.25c.65-2.77,1.37-7.26-1.19-12.77-3.1-6.67-9.2-10.66-16.32-10.66h0Z"/>
      </g>
      <g>
        <path class="cls-1" d="M787.18,648.08c-3.73,0-7.22-1.53-10.1-4.42-5.92-5.95-4.38-12.23-2.49-16.44-2.58-3.29-4.91-6.79-7.17-10.2-3.62-5.46-7.05-10.63-11.31-14.75-12.87-2.36-26-4.56-38.7-6.69-19.51-3.27-39.68-6.65-59.39-10.7l-.8-.17-.69-.44c-1.49-.94-2.46-2.11-3.24-3.04l-.39-.46c-5.52-6.43-10.43-14.13-15.18-21.58-4.52-7.09-9.19-14.41-14.19-20.26l-.2-.24c-1.22-1.43-1.58-1.79-2.29-2-4.31-1.3-10.5-1.94-16.49-2.57-3.75-.39-7.28-.76-10.45-1.28-1.38-.23-2.44-.78-3.15-1.14-.11-.06-.22-.12-.33-.17l-.11-.02c-4.95-.88-7.44-1.19-8.69-1.28-.08.09-.16.17-.24.25-1.24,1.33-3.31,3.57-7.29,4.32-1.03.2-2.06.3-3.06.3-7.16,0-12.75-5.25-13.59-12.77-.84-7.49,3.3-13.8,10.06-15.34,1.43-.33,2.72-.48,3.97-.48,5.24,0,8.44,2.81,11.12,5.85.89,1.01,1.39,2.12,1.75,2.96,3.31,1.09,14.06,2.66,21.37,3.72,12.81,1.86,20.84,3.1,24.31,4.62l1.13.49,33.84,47.01,100.64,17.77,22.17,30.99c.17,0,.36,0,.52.01,2.25.04,6.44.12,9.91,4.82,3.42,4.63,3.99,10.33,1.51,15.24-2.48,4.91-7.5,8.09-12.79,8.09Z"/>
        <path d="M571.68,511.01c3.2,0,5.31,1.56,7.75,4.33.89,1.01,1.2,2.72,1.87,3.37,3.04,2.9,40.4,6.14,47.13,9.07l34.19,47.49,100.64,17.77,21.88,30.58c2.38,1.96,6.17-.97,9.69,3.8,5.56,7.52-.55,16.16-7.66,16.16-2.32,0-4.74-.92-6.91-3.09-4.49-4.51-2.97-8.95-.35-13.87-7.7-8.97-12.98-20.63-21.7-28.53-33.05-6.11-66.41-10.85-99.3-17.61-1.08-.68-1.8-1.69-2.62-2.63-10.56-12.3-18.89-29.59-29.36-41.84-1.39-1.63-2.46-2.98-4.62-3.63-7.48-2.25-19.31-2.62-27.49-3.98-1.28-.21-2.21-1.09-3.23-1.27-1.77-.31-7.96-1.44-10.47-1.44-.44,0-.76.03-.94.11-1.97.9-2.73,3.81-6.74,4.57-.78.15-1.52.22-2.22.22-10.94,0-12.54-16.94-2.53-19.23,1.09-.25,2.07-.37,2.96-.37M571.68,502.01c-1.58,0-3.21.19-4.97.6-8.93,2.04-14.63,10.55-13.54,20.23,1.11,9.87,8.54,16.77,18.07,16.77,1.27,0,2.58-.13,3.9-.38,4.06-.77,6.71-2.72,8.38-4.29,1.22.16,3.02.44,5.65.9.88.45,2.33,1.13,4.19,1.44,3.3.55,6.9.92,10.72,1.32,5.54.58,11.26,1.17,15.16,2.26.2.22.45.52.66.76l.21.24c4.79,5.61,9.17,12.48,13.81,19.76,4.83,7.58,9.83,15.42,15.56,22.09.12.13.23.27.34.41.88,1.06,2.21,2.66,4.31,3.97l1.38.87,1.6.33c19.79,4.07,40,7.45,59.55,10.73,12.24,2.05,24.86,4.16,37.26,6.43,3.51,3.65,6.56,8.24,9.76,13.06,1.86,2.81,3.77,5.68,5.84,8.47-1.64,5.08-2.18,12.26,4.38,18.85,3.69,3.7,8.4,5.74,13.29,5.74,6.97,0,13.57-4.15,16.81-10.56,3.26-6.46,2.55-13.92-1.91-19.95-3.9-5.28-8.64-6.33-11.67-6.57l-19.82-27.7-2.14-2.99-3.62-.64-97.03-17.13-32.05-44.53-1.44-2-2.26-.99c-4.08-1.78-12.33-3.04-25.46-4.95-6.07-.88-14.7-2.14-18.89-3.09-.39-.67-.88-1.4-1.5-2.11-3.03-3.43-7.41-7.38-14.5-7.38h0Z"/>
      </g>
      <g>
        <path class="cls-1" d="M650.54,486.06c-1.51,0-3.15-.2-4.88-.59-6.2-1.41-10.26-7.92-9.45-15.16.85-7.56,6.59-12.44,14.64-12.44.95,0,1.94.07,2.95.2.79.1,1.46.35,2.02.63l53.36-37.43,1.7.2c18.73,2.17,37.64,5.68,55.92,9.08,4.74.88,9.48,1.76,14.21,2.62l2.24-.14,76.34-53.54c.19-.22.36-1.35.46-2.04.28-1.86.66-4.41,2.44-6.79,1.34-1.79,5.53-4.73,7.98-5.3.99-.23,2.02-.34,3.07-.34,7.18,0,13.58,5.2,14.56,11.83.66,4.45-.46,8.6-3.13,11.7-2.72,3.15-6.83,4.96-11.29,4.96-2.05,0-4.1-.39-6.04-1.13l-79.76,56.09-5.02.55-69.75-12.16-48.46,34.24c.08.65.1,1.44-.08,2.29-2.42,11.03-9.83,12.67-14.03,12.67Z"/>
        <path d="M873.54,369.51c4.64,0,9.41,3.3,10.1,7.99,1.05,7.14-4.08,11.5-9.97,11.5-2.15,0-4.4-.58-6.48-1.82l-80.96,56.94-3.23.36-70.96-12.38-50.96,36.01c-2.21,1.19-.61,2.93-.91,4.32-1.31,5.97-4.35,9.14-9.63,9.14-1.18,0-2.47-.16-3.88-.48-8.24-1.87-9.14-18.71,4.19-18.71.74,0,1.53.05,2.36.16,1.04.14,1.76,1.29,2.74,1.29.2,0,.4-.05.62-.15l53.79-37.74c23.53,2.73,47.02,7.53,70.39,11.76l4.05-.26,77.52-54.37c3-2.33,1.37-6.51,3.77-9.72.78-1.05,4.13-3.32,5.38-3.6.67-.15,1.37-.23,2.06-.23M873.54,360.51c-1.38,0-2.75.15-4.07.45-3.59.82-8.73,4.49-10.59,6.99-2.46,3.29-2.98,6.75-3.28,8.82,0,0,0,0,0,0l-73.9,51.83-.43.03c-4.55-.83-9.17-1.68-13.65-2.52-18.36-3.41-37.34-6.94-56.22-9.13l-3.4-.39-2.8,1.97-50.12,35.16c-.22-.04-.45-.08-.68-.11-1.21-.16-2.4-.24-3.54-.24-10.33,0-18.01,6.61-19.11,16.44-1.07,9.51,4.49,18.13,12.93,20.04,2.05.47,4.02.7,5.87.7,4.47,0,15.22-1.58,18.42-16.21.07-.31.12-.61.16-.9l45.06-31.84,67.28,11.73,1.26.22,1.27-.14,3.23-.36,2.3-.25,1.89-1.33,77-54.15c1.73.44,3.5.67,5.27.67,5.76,0,11.12-2.37,14.69-6.52,3.54-4.1,5.03-9.54,4.18-15.3-1.3-8.79-9.65-15.67-19.01-15.67h0Z"/>
      </g>
      <g>
        <path class="cls-1" d="M718.25,393.89l-17.62-25.56c-5.86-.17-11.04-3.06-13.61-7.63-2.53-4.51-2.23-9.97.82-14.97,2.46-4.04,6.57-6.36,11.27-6.36,4.05,0,8.12,1.81,10.87,4.84,2.74,3.02,4.03,7,3.62,11.19-.16,1.61-.72,2.87-1.12,3.79-.02.05-.05.11-.07.16l14.64,20.44c2.58.54,5.17,1.1,7.7,1.66,4.83,1.05,9.82,2.15,14.65,3.01,1.47.26,3.23.6,5.15.97,6.36,1.22,15.08,2.89,19.45,2.92h.45s21.72-15.24,21.72-15.24c-12.82-2.21-25.75-4.59-38.3-6.91l-12.11-2.23-17.79-25.33c-.4.03-.79.05-1.19.05-5.35,0-10.19-3.04-12.63-7.93-2.43-4.87-1.89-10.42,1.44-14.86,2.86-3.81,6.84-5.92,11.19-5.92,5.2,0,10.22,3.07,12.79,7.81,2.12,3.91,2.32,8.31.62,12.44l14.22,19.83,61.61,10.7.2.05c.77.21,4.7,1.36,6.03,3.68,1.32,2.33.81,4.75.54,6.05l-.35,1.67-1.18,1c-7.24,6.13-15.17,11.57-22.83,16.83-5.9,4.05-12,8.23-17.64,12.64l-1.03.8-6,.6-55.49-10.21Z"/>
        <path d="M726.78,314.49c6.92,0,13.34,8.14,8.15,16.13l16.9,23.57,63.22,10.97c.69.19,3.06,1.17,3.29,1.57.5.89.21,2.1,0,3.05-12.61,10.68-27.25,19.13-40.34,29.36l-4.07.41-53.03-9.75-17.96-26.06c-.59.07-1.18.1-1.75.1-8.65,0-14.56-7.47-9.5-15.77,1.77-2.91,4.58-4.2,7.43-4.2,5.26,0,10.66,4.39,10.01,11.1-.23,2.37-2.3,3.94-.99,6.15l16.28,22.73c8.01,1.62,16.15,3.61,24.19,5.04,6.65,1.19,19.23,3.91,25.35,3.96.23,0,.46,0,.68,0,.65,0,1.27-.06,1.86-.45l30.39-21.33c1.3-1.81-4.49-1.48-5.17-1.59-17.79-3-35.59-6.35-53.34-9.61l-18.41-26.22c-1.09.36-2.16.53-3.19.53-7.43,0-12.72-8.77-7.6-15.59,2.18-2.9,4.92-4.12,7.59-4.12M726.78,305.49h0c-5.8,0-11.06,2.74-14.79,7.71-4.31,5.75-5.03,13.25-1.86,19.57,3.04,6.08,8.91,9.98,15.52,10.38l15.37,21.89,2.12,3.01,3.62.67c3.43.63,6.85,1.26,10.28,1.89,9.08,1.67,18.36,3.39,27.65,5.04l-11.61,8.15c-4.3-.24-12.28-1.77-17.7-2.81-1.9-.36-3.69-.71-5.2-.98-4.75-.85-9.69-1.93-14.48-2.97-1.98-.43-3.99-.87-6.02-1.3l-12.2-17.03c.26-.83.49-1.79.59-2.88.53-5.48-1.16-10.68-4.76-14.65-3.64-4.02-8.82-6.32-14.2-6.32-6.21,0-11.86,3.18-15.11,8.51-3.93,6.44-4.25,13.55-.9,19.52,2.98,5.31,8.58,8.87,15.04,9.73l15.35,22.27,2.12,3.07,3.67.67,53.03,9.75,1.25.23,1.27-.13,4.07-.41,2.59-.26,2.05-1.61c5.54-4.33,11.58-8.47,17.42-12.48,7.76-5.32,15.78-10.83,23.2-17.11l2.36-2,.63-3.02.03-.14c.34-1.62,1.14-5.4-1.02-9.21-1.41-2.47-3.52-3.68-5.58-4.62-.56-.25-1.98-.87-3.19-1.2l-.39-.11-.4-.07-59.59-10.34-11.82-16.49c1.22-4.65.68-9.51-1.65-13.81-3.35-6.18-9.92-10.17-16.75-10.17h0Z"/>
      </g>
      <g>
        <path class="cls-1" d="M797.44,571.2c-5.89,0-10.74-3.45-12.71-8.71-11.8-2.11-25.34-4.56-38.7-7.08-.09-.02-.28-.04-.67-.04-.25,0-.49,0-.75.01-.33,0-.67.02-1,.02-.63,0-1.6-.02-2.65-.23l-1.04-.21c-6.72-1.33-10.97-2.27-12.79-3.15-3.43-1.66-6.59-6.44-11.45-14.1-2.42-3.8-5.63-8.87-7.64-10.85l-81-14.28c-.39.31-.76.61-1.12.91-2.19,1.81-4.67,3.85-9.22,3.85-1.15,0-2.4-.13-3.82-.39-6.94-1.28-11.31-7.3-10.64-14.63.62-6.76,5.68-13.6,14.15-13.6.37,0,.74.01,1.12.04,7.17.52,10.23,6.04,11.71,8.69.08.14.17.3.25.46l84.5,14.52.34.12c4.26,1.46,7.84,6.82,13.33,15.45,2.4,3.78,5.33,8.38,7.23,10.29l52.06,9.3c.41-.55.94-1.17,1.68-1.7,2.92-2.11,6.13-3.23,9.29-3.23,6.14,0,11.57,4.12,13.5,10.25,1.88,5.95-.18,11.9-5.36,15.52-2.59,1.81-5.56,2.77-8.6,2.77Z"/>
        <path d="M616.4,493.23c.26,0,.52,0,.79.03,7.05.51,7.95,8.06,9.97,8.82l85.7,14.72c5.46,1.87,14.49,21.65,20.01,25.7l55.35,9.89c1.55-.05,1.87-2.02,3.02-2.86,2.31-1.67,4.58-2.38,6.65-2.38,8.5,0,13.77,11.83,5.56,17.58-1.9,1.33-4,1.95-6.02,1.95-4.41,0-8.42-2.98-9.07-8.13-13.83-2.47-27.74-4.99-41.51-7.58-.49-.09-.99-.12-1.51-.12-.57,0-1.16.03-1.74.03s-1.18-.03-1.76-.15c-2.71-.54-10.89-2.09-12.75-2.99-4.77-2.31-13.71-21.29-19.09-25.13l-84.09-14.82c-3.98,2.73-5.11,5.03-9.22,5.03-.85,0-1.84-.1-3-.31-10.99-2.03-8.32-19.31,2.69-19.31M616.4,484.23c-9.86,0-17.7,7.44-18.64,17.69-.89,9.74,4.99,17.74,14.3,19.46,1.69.31,3.21.46,4.64.46,5.76,0,9.13-2.47,11.59-4.47l77.45,13.65c1.74,2.16,4.42,6.37,6.15,9.1,5.45,8.58,8.76,13.55,13.29,15.74,2.07,1,5.31,1.82,13.86,3.51l1.04.21c1.44.29,2.71.32,3.53.32.37,0,.74,0,1.11-.02.21,0,.42-.01.63-.01.01,0,.02,0,.03,0,0,0,.01,0,.02,0,12.42,2.34,25.04,4.63,36.25,6.64,3.12,5.58,8.99,9.19,15.77,9.19,3.97,0,7.83-1.24,11.18-3.58,6.75-4.72,9.52-12.79,7.07-20.56-2.53-8.01-9.67-13.39-17.79-13.39-4.11,0-8.24,1.41-11.93,4.09-.22.16-.43.33-.63.49l-48.13-8.6c-1.65-2.07-4.14-6-5.76-8.55-6.01-9.46-9.99-15.36-15.67-17.3l-.68-.23-.71-.12-82.05-14.1c-2.06-3.46-6.18-8.95-14.5-9.56-.48-.03-.96-.05-1.44-.05h0Z"/>
      </g>
      <g>
        <path class="cls-1" d="M569.6,924.21c-.92-2.48-1.56-4.97-2.18-7.37-.72-2.8-1.4-5.44-2.47-7.9-6.03-13.87-26.07-36.25-35.7-47.01-31.38-35.06-67.83-65.87-103.08-95.67-23.7-20.03-48.2-40.75-70.94-62.56-5.67-5.44-6.66-7.19-6.6-9.38.08-3.04,2.25-5.24,5.15-5.24,1.09,0,1.99.33,2.47.51l.05.02c15.03,3.72,38.48,18.72,52.51,27.7l.62.4c50.49,32.29,98.06,71.01,144.06,108.46,3.63,2.95,7.25,5.9,10.87,8.85-1.32-5.35-2.86-10.95-4.43-16.14-27.74-91.22-137.98-174.41-184.09-205.94-1.53-1.04-3.48-2.42-5.66-3.97-4.76-3.37-11.16-7.9-16.29-11.08,1,1.96,2.22,3.91,3.48,5.91.51.82,1.02,1.63,1.52,2.44,8.93,14.66,20.62,27.81,31.93,40.53,2.81,3.17,5.62,6.33,8.4,9.52l.87,1,.19,1.3c.13.87.43,2.89-1.09,4.65-.94,1.08-2.28,1.68-3.77,1.68-.52,0-1.05-.07-1.7-.22-7.08-1.68-19.02-8.09-23.82-10.77-22.94-12.8-40.42-29.06-58.92-46.27-.66-.61-1.31-1.22-1.98-1.84.5.64,1,1.29,1.5,1.93,1.08,1.38,2.14,2.75,3.17,4.11,11.71,15.42,24.41,29.9,37.74,43.05l.98.97,1.27,6.34-5.97,3.53-1.72-.37c-39-8.35-72.21-30.59-98.69-66.1-5.44-7.29-10.2-15.06-14.8-22.59-.31-.51-.62-1.01-.93-1.52.06.84.14,1.68.24,2.51,2.29,19.87,8.76,41.46,13.43,55.97,1.04,3.22,2.37,6.58,3.77,10.14,1.85,4.67,3.76,9.49,5.01,14.13l.02.03c.72,1.34,1.95,4.75-2.13,7.58l-3.16,2.19-2.65-2.78c-30.94-32.42-50.31-75.71-56.27-125.57-4.86,3.34-9.71,6.8-14.44,10.17-20.83,14.85-42.38,30.2-67.62,38.11l-1.22.38c-5.35,1.69-10.87,3.43-16.85,3.43-.73,0-1.46-.03-2.17-.08l-3.67-.28-.46-3.65c-.46-3.65,2.07-5.86,3.29-6.92.12-.11.24-.21.36-.32,5.39-4.98,11.06-9.74,16.55-14.33,14.94-12.52,29.05-24.34,38.68-40.96,1.54-2.67,2.94-5.5,4.25-8.38l-.42.2c-18.02,8.46-36.65,17.2-56.19,23.14-20,6.07-36.38,9.03-50.08,9.03-9.9,0-18.34-1.61-25.07-4.78-.08-.04-8.33-4.24-9.73-7.57-.97-2.31-.28-4.05.22-4.89,1.33-2.22,3.68-2.46,4.48-2.54,2.88-.92,5.82-1.71,8.67-2.47,3.72-1,7.24-1.94,10.64-3.16,41.74-14.98,74.86-47.64,91.39-89.93-4.34-2.38-8.77-4.7-13.4-7.13-24.91-13.07-50.66-26.59-66.29-51.21-1.95-3.07-3.61-6.07-2.55-9.08.98-2.77,3.46-3.61,5.11-4.16.72-.24,1.46-.49,2.21-.88,16.99-78.74,55.39-152,111.14-211.96,56.16-60.41,127.05-104.23,205.01-126.74,41.13-11.88,83.57-17.9,126.14-17.9,166.27,0,318.8,90.53,398.04,236.26,30.41,55.92,48.44,116.19,53.6,179.12,4.96,60.61-2.19,120.78-21.25,178.84-18.96,57.75-48.64,110.12-88.2,155.65-41.07,47.26-90.83,84.79-147.91,111.53-3.41,1.6-7.91,3.33-12.67,5.16-6.51,2.5-13.81,5.31-17.9,7.7-1.33,2.59-3.66,2.81-4.43,2.81-2.52,0-4.13-1.88-4.67-2.5l-.26-.31-.21-.35c-11.59-19.81-23.58-40.3-41.61-54.11-.32-.25-.91-.67-1.63-1.17,1.67,12.57,2.84,26.15.72,39.64-1.33,8.45-4.29,17.2-6.68,24.23-2.83,8.33-6.24,16.59-9.54,24.57-1.72,4.17-3.5,8.48-5.16,12.7l-4.31,10.98-4.1-11.06ZM642.48,833.44c1.06,2.9,2.12,5.87,2.84,9,6.8-2.24,18.2-8.01,25.26-11.57,1.29-.65,2.48-1.25,3.53-1.78,4.61-2.3,9.22-4.91,13.68-7.43,3.89-2.2,7.87-4.45,11.95-6.56-2.69-4.35-5.68-8.64-8.59-12.83l-.45-.64c-3.19-4.59-6.54-9.21-9.78-13.68-3.96-5.47-8.04-11.11-11.94-16.8-.34-.04-.78-.08-1.13-.12-3.17-.28-9.08-.8-12.26-8.23-2-4.68-1.62-9.68,1.04-13.71,2.79-4.23,7.67-6.85,12.75-6.85s9.24,2.45,12.01,6.72c3.34,5.17,2.15,9.76,1.43,12.51-.1.37-.22.83-.29,1.19l31.03,43.59c.89-.59,1.89-1.26,3-2,6.56-4.37,22.84-15.22,27.81-19.5-2.16-3.36-7.83-11.53-10.06-14.41,0,0-.78,0-1.05,0-2.54,0-5.9-.34-9.34-3.03-5.05-3.95-6.86-9.8-4.84-15.64,2.12-6.16,8.12-10.63,14.26-10.63,2.93,0,7.24.97,11.08,5.59,4.89,5.88,3.42,10.66,2.63,13.22-.08.28-.19.61-.26.89l9.9,13.65c16.5-14.3,32.14-29.85,46.62-46.34-4.66-1.01-11.03-2.35-14.08-2.41-1.1,1.32-3.03,3.4-6.24,4.13-1.45.33-2.87.49-4.23.49-5.11,0-9.43-2.4-11.85-6.59-2.67-4.62-2.64-10.63.07-15.32,2.48-4.29,6.83-6.76,11.93-6.76.68,0,1.39.04,2.09.13,6.21.77,9.11,5.69,10.67,8.34.15.26.33.56.49.82,4.06.94,19.27,3.31,21.7,3.42l.27.02,14.98-19.88c-17.7-3.16-32.35-5.56-45.74-7.52-6.88,4.63-13.74,9.55-20.39,14.31-10.46,7.5-21.28,15.25-32.49,22.12l-1.46.89-58.72-10.44c-.79.98-1.99,2.38-4.35,3.46-2.16.99-4.34,1.49-6.48,1.49-4.39,0-8.31-2.12-11.06-5.97-3.35-4.7-3.9-10.07-1.5-14.72,2.45-4.75,7.7-7.93,13.07-7.93,3.93,0,7.54,1.67,10.15,4.7,1.2,1.38,1.77,2.81,2.19,3.86.04.1.08.21.13.32l53.83,9.05,54.08-37.5,1.82.32c5.69,1.01,11.36,1.99,17.02,2.97,12.19,2.12,24.8,4.3,37.34,6.68.42-.14,2.55-1.1,6.96-7.75,3.33-5.03,6.1-10.37,9.03-16.03,1.61-3.12,3.26-6.3,5.03-9.44-2.64-.49-5.36-.88-8.17-1.29-6.45-.94-13.11-1.91-19.46-4.13l-1.36-.47-37.41-52.9c-3.24-.5-8.84-1.6-16.77-3.16-10-1.96-23.32-4.58-28.42-5.09-1.01,1.34-2.77,3.09-5.78,3.88-1.62.42-3.2.64-4.7.64-4.98,0-9.22-2.39-11.63-6.55-2.68-4.63-2.67-10.87.02-15.52,2.38-4.13,6.54-6.5,11.39-6.5.76,0,1.55.06,2.34.17,7.22,1.05,9.84,6.33,11.1,8.86.02.05.05.1.07.15l50.37,8.77,1.06,1.32c7.44,9.24,14.26,19.14,20.86,28.71,5.59,8.1,11.35,16.46,17.44,24.33l26.14,4.56c.67-1.16,1.46-2.94,1.82-3.74.19-.43.36-.81.5-1.12,8.39-18.01,16.7-41.3,22.79-63.89.91-3.37,1.86-7.02,2.62-10.69-3.17,2.36-6.45,4.78-10.2,6.59l-1.28.62-36.03-5.86-3.52-2.81-20.88-30.1c-17.01-3.13-34.34-5.99-51.12-8.76-9.02-1.49-18.35-3.03-27.53-4.6-1.44-.25-3.64-.8-6.18-1.45-2.33-.59-5.84-1.48-8.1-1.9-.35.52-.8,1.05-1.38,1.52-2.94,2.38-6.3,3.63-9.71,3.63-5.66,0-10.81-3.41-13.13-8.7-2.29-5.21-1.23-10.95,2.82-15.34,2.64-2.86,6.44-4.51,10.42-4.51,4.84,0,9.28,2.34,11.86,6.26.69,1.05,1.03,2.02,1.25,2.73l98.15,16.9,2.85,1.88,21.46,30.42,25.35,4.98c1.83-1.35,4.31-2.96,7.07-4.75,3.82-2.48,10.78-6.99,12.42-8.96,2.96-17.67,4.85-33.76,5.74-48.88l-35.7,24.41-77.54-13.12c-3.72,3.17-7.59,4.83-11.32,4.83-3.44,0-6.68-1.42-9.38-4.1-4.35-4.33-5.65-10.06-3.47-15.33,2.29-5.54,7.97-9.41,13.82-9.41,4.02,0,7.77,1.81,10.55,5.11.99,1.17,1.5,2.53,1.88,3.56l71.97,12.23c13.54-8.58,26.8-18.28,39.31-27.59.6-13.22.45-26.29-.46-38.9-.6-8.26-1.28-15.01-2.07-20.44l-96.27,67.75-1.74-.23c-12.2-1.6-24.44-3.85-36.29-6.03-10.5-1.93-21.34-3.93-32.07-5.45l-52.97,37.17c.07,3.25-.86,6.69-2.64,9.42-1.95,3-4.79,4.94-7.98,5.45-1.17.19-2.32.28-3.42.28-9.5,0-14.17-6.82-14.5-13.16-.33-6.5,3.85-13.89,12.28-14.76.52-.05,1.03-.08,1.54-.08,1.85,0,3.31.36,4.49.64.32.08.62.15.9.21l57.09-40.02.9-.19c1.14-.24,2.33-.36,3.66-.36,1.21,0,2.35.09,3.41.19,11.1,1.01,23.7,3.48,35.88,5.87,6.17,1.21,12,2.35,17.54,3.29,1.49.25,2.89.66,4.24,1.05,1.71.5,3.33.97,4.68.97.33,0,.64-.03.93-.09l97.84-68.46c-.27-2-1.03-5.11-1.56-6.12-4.75-6.26-9.24-12.83-13.58-19.18-6.14-8.99-12.48-18.28-19.56-26.62l-73.97-12.42c-2.59,2.97-6.05,4.63-9.85,4.63-5.48,0-10.8-3.44-13.25-8.57-2.4-5.02-1.64-10.54,2.09-15.16,2.43-3.01,6.57-4.81,11.07-4.81,3.8,0,7.36,1.3,9.76,3.58,1.47,1.4,2.22,3.06,2.77,4.28.13.3.32.7.46.97l78.36,13.46.32.11c2.72.9,4.41,3.3,5.64,5.06.19.27.37.52.53.74,3.56,4.72,6.86,9.71,10.05,14.53.07.11.14.21.21.32-5.4-18.43-11.94-36.58-19.54-54.21l-15.9-3.15c-3.44,3.09-7.45,4.82-11.31,4.82-3.48,0-6.76-1.37-9.5-3.95-4.4-4.16-5.74-9.88-3.58-15.31,2.25-5.66,7.71-9.47,13.59-9.47,3.22,0,6.35,1.15,9.07,3.33,2.04,1.63,3.16,4.01,3.9,5.72,1.35.27,3.61.54,5.24.74.04,0,.08,0,.11.01-2.99-6.33-6.07-12.51-9.47-18.47-1.45-2.54-6.92-11.63-9.82-16.12-4.07,2.79-13.03,9.37-15.78,11.78,0,.19-.02.39-.03.58-.05,1.46-.13,3.45-1.21,5.7-2.4,5-7.02,7.99-12.36,7.99-5.41,0-10.73-3.12-13.23-7.76-2.42-4.5-2.01-9.8,1.12-14.57,2.66-4.04,6.39-6.08,11.09-6.08,2.16,0,4.3.44,6.36.99l15.69-11.22c-5.95-8.95-11.71-16.71-17.52-23.6l-76.85-13.52-44.31,30.66-.86.19c-.61.14-1.29.2-2.13.2-3.58,0-10.46-1.25-17.74-2.57-2.73-.5-5.66-1.03-8.06-1.42.08,2.69-.05,5.44-.17,8.13-.1,2.27-.21,4.46-.19,6.53,2.24.33,5.01.94,8.07,1.62,3.72.83,8.29,1.84,10.71,1.97.97-1.42,2.71-3.71,6.42-4.69,1.73-.45,3.41-.68,4.99-.68,8.91,0,13.58,7.02,13.58,13.96,0,7.13-4.87,14.71-13.9,14.71h0c-.36,0-.72-.01-1.09-.04-6.77-.47-9.01-4.37-10.35-6.7-.36-.62-.67-1.17-1-1.54-1.83-.91-8.88-1.75-12.71-2.21-1.8-.21-3.5-.42-5.04-.63-1.83,17.3-5.19,33.81-10.03,49.3l58.04-40.81c.6-.92.88-3.56,1.08-5.36.35-3.17.74-6.75,2.66-9.6l.46-.68,35.39-25.1.61-.21c1.18-.41,2.46-.6,3.91-.6,3.23,0,6.74,1,10.14,1.96,2.55.72,5.18,1.47,6.83,1.5.15-.12.32-.25.46-.37,1.76-1.42,4.71-3.81,9.27-3.81.49,0,.99.03,1.49.09,8.67.99,12.95,8.66,12.57,15.38-.44,7.69-6.24,13.06-14.12,13.06-.75,0-1.53-.05-2.31-.14-7.63-.91-10.03-7.23-11.05-10-3.11-.56-9.83-1.47-12.74-1.63l-27.92,19.45c-.41,1.25-.65,3.05-.88,4.81-.49,3.8-1.05,8.11-3.87,11.11l-.31.33-71.13,50.31c-.81,2.17-.77,4.73-.72,7.64.03,1.85.06,3.77-.14,5.74-.12,1.25-.31,2.47-.52,3.67,5.02-3.58,10.08-7.1,15.03-10.55,9.61-6.7,19.52-13.61,28.92-20.72.4-4.05,2.12-6.68,3.63-8.24,2.5-2.59,6.03-4.01,9.96-4.01,5.28,0,10.17,2.52,12.76,6.58,2.43,3.8,2.57,8.46.41,13.13-2.53,5.46-7.32,8.72-12.82,8.72-2.37,0-4.69-.61-6.85-1.78l-54.1,37.89c.47,1.14,1.01,2.27,1.57,3.44,1.11,2.3,2.37,4.91,3.17,8,2.57,9.83,2.53,20.69-.1,32.28-.42,1.83-1.73,5.42-3.86,11.1-.68,1.82-1.5,4.02-2.14,5.8,2.22.37,4.94.73,7.82,1.12,7.46,1,15.92,2.13,21.2,4.09.9.33,3.62,1.35,4.78,4.18.76,1.85.62,3.89-.41,6.08l-.5,1.07-51.01,36.23c-.23,4.89-1.73,8.89-4.41,11.68-2.52,2.62-5.96,4.01-9.96,4.01-1.31,0-2.7-.15-4.14-.45-5.11-1.06-8.79-4.84-9.83-10.12-1.17-5.89,1.33-12.08,6.23-15.4,2.56-1.73,4.75-2.54,6.91-2.54,1.68,0,2.96.49,3.9.84.65.25,1,.37,1.41.4,3.18-1.11,14.97-10.01,22.83-15.95,4.78-3.61,8.74-6.58,11.95-8.88l-14.83-2.4c-6.77,5.97-14.55,10.34-22.1,14.59-4.45,2.5-9.04,5.09-13.27,7.92-47.6,31.96-74.74,74.24-74.98,116.53,1.94.33,3.91.64,5.96.95,6.77,1.04,13.77,2.11,20.39,4.57l1.31.49,68.28,97.43c.16,0,.33.01.48.02,2.34.07,6.69.21,10.64,5.56,3.07,4.17,3.59,9.28,1.37,13.67-2.33,4.61-7.11,7.59-12.17,7.59-3.83,0-7.41-1.74-10.06-4.89-4.06-4.82-3.25-8.78-2.76-11.15.1-.5.18-.88.21-1.18-3.48-4.99-6.95-10-10.43-15.01-18.18-26.18-36.97-53.25-56.11-79.08l-16.8-3.04c3.12,25.83,13.17,51.5,29.9,76.39l16.61,22.5c5.08.52,9.31,3.49,11.51,8.15,2.79,5.9.78,10.19-.35,12.38.93,1.44,2.33,3.5,2.97,4.38,1.05.48,4.04.82,5.87,1.03,3.59.41,7.29.83,9.96,2.44l.81.49,39.08,55.66.05.08c1.72,2.66,1.54,5.46,1.43,7.31l-.04.63c-.24,5.04-1.49,10.41-2.7,15.61-1.15,4.94-2.24,9.61-2.47,13.78q-.13,2.36,3.17,3.24c2.26.61,5.08,1.36,7.41,3.61,4.25,4.09,5.47,10.16,3.18,15.84-2.15,5.33-6.85,8.94-12.23,9.52ZM616.18,777.22c.69,1.67,4.32,7.58,6.51,11.15,1.28,2.08,2.44,3.98,3.33,5.49l3.97-23.23-9.83-13.98c-.42,2.41-1.08,5.19-1.76,8.07-.98,4.14-2.44,10.34-2.22,12.5ZM509.8,643.24c4.51,7.5,12.17,17.47,17.49,24.39l1.45,1.89c9.73,12.68,20.83,24.67,31.57,36.26,8.28,8.95,16.85,18.2,24.8,27.78,6.49,7.82,12.53,16.15,18.37,24.25.37-1.78.64-3.57.48-4.59l-31.35-44.65c-.28-.06-.56-.12-.84-.17-4.03-.82-9.54-1.95-12.13-8.75-1.97-5.19-1.56-10.21,1.16-14.16,1.78-2.58,4.49-4.51,7.58-5.51l-4.87-1.96c-16.68-6.72-30.96-17.56-44.77-28.04-2.94-2.23-5.93-4.5-8.94-6.73ZM352.5,509.69c.48,0,.96.07,1.42.19l1.49.41.92,1.24c30.31,40.67,60.81,73.67,93,100.6,1.38-26.41,6.97-52.59,16.67-77.97,2.36-6.19,5.21-12.16,7.96-17.93,2.02-4.23,3.97-8.33,5.73-12.46-1.79,2.07-5.49,7.09-8.53,11.21-8.12,11-9.24,12.35-10.97,13.1-.77.34-1.56.51-2.34.51-1.7,0-3.22-.78-4.19-2.14-1.02-1.43-1.25-3.27-.63-5.06l.07-.2c12.67-31.8,33.01-59.69,60.45-82.89,25.43-21.5,55.75-38.06,90.13-49.21,1.65-.54,4.63-1.31,8.08-2.21,5.16-1.34,14.65-3.81,16.85-4.98,1.35-1.87-2.74-12.12-8.03-18.41-10.12-12.01-25.26-20.98-40.5-23.98l-3.49-.69-.13-3.56c-.13-3.41.65-7.38,1.46-11.58.33-1.71.69-3.54.98-5.35-7.33,17.11-20.86,37.64-44.91,45.04l-1.29.4-1.29-.38c-5.22-1.52-4.69-8.31-4.43-11.58v-.17c2.4-30.73,14.81-70.19,42.49-88.78,4.69-3.15,9.75-4.29,14.63-5.4,2.56-.58,4.97-1.12,7.28-1.94,11.48-4.05,20.12-11.28,25.68-21.47l1.26-2.3,2.62-.04c4.46,0,5.66,3.62,7.79,16.98l.04.27c1.48,9.25,3.15,19.74,1.16,29.39l-.04.17-13.69,47.35c.57.38,1.24.78,1.89,1.15,1.02-2.41,2.04-4.81,3.07-7.22,11.03-25.88,22.43-52.65,23.48-81.1l.03-.87c.13-3.23.39-9.95-1.03-12.28-.99-1.62-1.54-1.62-1.98-1.62-.86,0-2.09.34-3.4.7-1.71.47-3.65,1.01-5.8,1.11-.35.02-.71.03-1.05.03-9.79,0-17.68-6.47-24.65-12.17-2.83-2.32-5.5-4.5-8.08-6.11-8.7-5.41-17.07-8.16-24.86-8.16-21.7,0-36.31,21.09-44.73,38.78-1.85,3.88-3.46,8.88-5.02,13.71-2.02,6.27-4.11,12.75-6.93,17.58-2.22,3.8-4.92,5.73-8.02,5.73-7.54,0-10.17-10.82-10.55-14.99-.25-2.8.07-4.98.35-6.91.17-1.15.31-2.14.32-3.16l.02-1.91c.16-12.26.11-18.55,0-21.67-3.42.14-8.21,1.01-9.23,1.38-16.5,5.97-30.61,18.75-44.26,31.1-5.75,5.2-11.69,10.58-17.61,15.24-3.21,2.52-5.45,3.71-7.48,3.95-.45.05-.82.08-1.16.08-1.92,0-3.1-.86-3.76-1.58-.58-.64-1.23-1.72-1.22-3.3-1.39-5.41,2.28-11.16,5.52-16.26,1.24-1.95,2.41-3.79,2.95-5.08,1.18-2.85,1.49-5.15.82-6.16-.32-.48-1.87-2.06-8.23-2.06-5.05,0-10.83,1.02-13.93,1.57-36.17,6.4-81.64,16.19-112.42,35.27-22.54,13.98-38.58,36.53-54.09,58.35l-2.69,3.78c-17.35,24.34-35.13,50.42-46.94,79.59l50.08-19.95s.85-.19,1.15-.26c1.98-.46,5.29-1.22,8.25-1.22s5.33.85,6.82,2.51c1.24,1.39,1.8,3.26,1.57,5.25l-.13,1.12-.65.93c-3.74,5.38-8.7,9.79-13.5,14.06-3.67,3.27-7.14,6.35-9.95,9.73-10.14,12.16-15.46,28.55-18.77,43.4l3.48-2.17.09-.05c18.55-10.43,41.2-17.06,60.61-17.72.48-.02.93-.03,1.36-.03,3.17,0,6.56.5,9.93,4.09l1.97,2.1-1.08,2.67c-2.14,5.29-5.93,7.17-8.98,8.68-1.08.54-2.11,1.05-3.08,1.7-8.08,5.39-16.62,11.89-21.8,20.39,3.47-.78,6.92-1.64,10.31-2.48,11.5-2.86,23.38-5.82,35.85-5.82,2.04,0,4.07.08,6.04.24,1.39.11,4.85.65,7.78,1.28,4.79,1.03,8.51,2.08,9.36,5.5.39,1.58.35,3.87-2.03,5.8l-.08.07c-1.67,1.54-4.68,3.01-9.45,5.27-2.31,1.09-4.69,2.22-5.92,2.98-1.02.64-2.07,1.31-3.09,2.01l27.45-5.48.33-.02c.3-.02.58-.02.85-.02,6.45,0,8.09,4.52,8.98,6.95,1.34,3.67,2.31,7.64,3.26,11.49.83,3.4,1.69,6.87,2.79,10.1.36-3.13.52-6.76.67-9.93.12-2.75.24-5.36.46-7.52l.02-.21c.45-5.36,2.47-8.08,6.01-8.08ZM97.6,377.18c.37.24.82.51,1.37.8,10.05,5.47,36.64,14.21,47.2,14.82.71.04,1.48.06,2.27.06,8.14,0,19.09-2.09,27.07-5.49-.12,0-.24,0-.36,0-2.48,0-5.09.06-7.62.12-2.32.05-4.51.1-6.43.1s-3.19-.05-4.27-.14c-2.38-.22-14.41-1.58-16.98-6.96-.92-1.91-.75-4.05.46-5.87,1.32-1.99,2.44-2.65,26.47-9.64,6.03-1.75,11.72-3.41,13.51-4.09,14.63-5.56,31.48-15.45,33.88-22.83.1-.32.29-1.14.49-2.04-1.63-.36-3.36-.53-5.19-.53-9.1,0-19.21,4.43-26.03,7.76-5.37,2.62-10.54,5.37-15.54,8.02-11.87,6.3-23.08,12.25-36.88,16.8-4.83,1.59-10.21,2.85-15.42,4.07-6.28,1.46-12.77,2.98-17.87,5.01-.04.02-.09.04-.13.05ZM104.08,336.19c7.15-2.93,11.41-4.77,13.95-5.94l-17.44-25.35c-.69,1.78-1.59,4.15-2.74,7.3l-.18.48c-1.47,4-2.77,8.23-4.03,12.32-.9,2.91-1.81,5.88-2.81,8.84l13.25,2.35ZM133.28,323.39c3.41-1.38,6.82-2.94,10.14-4.45,6.03-2.75,12.21-5.56,18.79-7.58l-13.72-20.26c-5.8-1.31-13.17-3.73-14.19-12.8-.68-6.02,1.51-9.89,3.47-12.07,2.71-3.04,6.73-4.78,11.03-4.78,7.42,0,13.16,4.96,13.96,12.05.35,3.11-.22,5.37-.68,7.19-.14.54-.26,1.02-.35,1.49l17.1,23.98,29.42-4.3c5.29-1.65,9.48-3.74,12.91-6.47l-14.57-2.52c-2.88,2.46-6.55,4.76-11.01,4.76-2.54,0-5.1-.75-7.62-2.22-5.66-3.32-8.18-9.68-6.41-16.2,1.81-6.68,7.45-11.17,14.03-11.17,2.03,0,4.1.42,6.15,1.25,3.4,1.38,5.17,4.3,6.46,6.44.19.31.43.72.64,1.04l25.63,4.71c.21-.18.44-.39.67-.61l-58.97-83.68c-1.97-.79-7.72-2-11.14-2-.03,0-.05,0-.08,0-1.6,2.11-3.26,4.15-4.89,6.14-1.55,1.9-3.02,3.69-4.42,5.54l-1.59,2.08c-2.98,3.88-7.94,10.35-10.96,15.05,1.47.27,3.03.61,4.63.95,3.01.65,6.41,1.37,8.32,1.42,1.1-1.32,3.03-3.44,6.28-4.17,1.48-.33,2.93-.5,4.31-.5,9.29,0,14.15,7.34,14.15,14.6,0,7.22-4.95,14.89-14.13,14.89-.52,0-1.05-.03-1.58-.08-7.52-.71-10.1-5.78-11.49-8.51-.09-.17-.19-.38-.29-.57l-19.4-3.08-25.67,49.08,25.09,35.34ZM176.81,181.47c3.26.46,6.61,1.31,8.88,3.39l.34.31.27.37c8.66,11.98,17.27,24.3,25.6,36.21,11.16,15.96,22.67,32.43,34.45,48.3l18.88-15.45c-5.84-8.22-11.65-16.59-17.28-24.72-10.24-14.77-20.82-30.03-31.74-44.52-3.56-.08-10.26-.85-13.26-7.86-2.15-5.01-1.82-10.24.89-14.35,2.62-3.97,7.19-6.44,11.93-6.44,4.48,0,8.62,2.2,11.35,6.03,4.25,5.97,2.56,10.59,1.66,13.07-.05.15-.12.32-.18.49l49.86,70.06c1.25-.71,2.74-1.68,3.64-2.26,1.24-.8,2.21-1.43,2.99-1.83,9.61-4.92,19.48-9.2,29.4-12.78-1.32-2.04-3.39-5.11-6.6-9.69l-.87-1.25c-5.57-8.06-11.44-16.16-17.12-23.99-4.77-6.58-9.7-13.38-14.46-20.17-4.09-1.18-8.46-1.82-13.05-2.49l20.89,30.46c.61.7,1.32.9,3.23,1.28,2.82.56,7.08,1.41,9.98,6.57,2.79,4.96,2.93,10.08.39,14.43-2.58,4.42-7.68,7.28-13,7.28-4.66,0-8.78-2.2-11.31-6.03-4.06-6.15-2.01-11.41-1.02-13.93.01-.03.03-.07.04-.1l-51.6-72.51c-17.13,14.41-31.34,28.26-43.17,42.11ZM249.87,154.24c4.65,1.19,9.43,1.87,14.47,2.59,6.35.9,12.92,1.84,19.31,3.9l1.44.47,44.7,63.94,21.71-3.96c.37-1.71,1.08-3.28,1.65-4.49-.83-1.36-2.04-3.26-2.58-4.05-1.01-.59-4.51-1.04-6.63-1.31-3.63-.46-7.06-.9-9.58-2.41l-.82-.49-39.96-56.83c-.07.1-.15.2-.22.3-2.69,3.63-6.85,5.71-11.4,5.71-3.92,0-7.71-1.55-10.4-4.25-2.55-2.56-3.95-6.02-3.94-9.73,0-1.9.54-3.47.97-4.73.08-.24.19-.55.27-.82-1.58-2.1-4.02-5.74-7.43-10.85-2.77-4.15-6.64-9.95-8.88-12.97-3.11,2.01-8.62,6.25-12.22,9.01-3.48,2.67-6.15,4.71-8.18,6.15l17.73,24.83ZM366.09,208.34c6.55,1.2,11.11,4.77,13.07,10.15l26.22-2.57s-.02-.07-.03-.11c-1.49-4.82-.69-9.99,2.13-13.81,2.62-3.56,6.73-5.6,11.26-5.6.3,0,.61,0,.92.03,2.09.12,3.91.98,5.24,1.6,0,0,0,0,0,0l34.61-24.46,7.21-39.23s-.01-.01-.02-.02c-2.06-1.77-5.51-4.73-6.23-9.74-.6-4.12.45-7.99,2.96-10.88,2.69-3.11,6.79-4.89,11.25-4.89,4.17,0,8.05,1.63,10.65,4.47,1.84,2.02,3.94,5.61,3.43,11.25-.52,5.8-4.18,8.54-6.14,10.01-.22.17-.49.37-.7.53l-8.19,46.71-40.75,29.37-.04.13c5.89-1.27,11.84-2.27,17.64-3.25l1.15-.19c.58-.1,1.21-.15,1.92-.15.46,0,.92.02,1.39.04.17,0,.33.02.5.02.04-.05.08-.11.12-.16,1.55-2.05,4.45-5.88,9.93-6.49.49-.05.97-.08,1.44-.08,3.99,0,6.42,1.96,7.87,3.13.18.15.41.33.59.47,5.05-.28,24.14-5.28,29.17-6.84,2.12-.66,4.26-1.55,6.52-2.49,2.29-.95,4.63-1.92,7.07-2.7l-24.25-34.91.1-5.41,8.46-47.96-43.85-61.87c-19.12.16-38.48,4.02-57.23,7.77-1.87.37-3.74.75-5.61,1.12,3.14,4.77,6.63,9.5,10.01,14.09,3.3,4.48,6.72,9.11,9.86,13.84l.77,1.15v1.38c-.08,7.45-1.55,14.75-2.97,21.8-1.12,5.58-2.18,10.88-2.6,16.2l9.71,13.49,14.88-9.93c.31-2.64,1.09-6.22,2.18-11.07.96-4.25,2.49-11.09,2.53-13.78-1.52-1.21-3.94-3.19-4.58-6.5-.79-4.05.27-8.99,2.71-12.58,1.87-2.75,4.38-4.49,7.27-5.02,1.23-.23,2.45-.34,3.63-.34,7.46,0,13.41,4.88,14.47,11.88.81,5.34-1.59,12.05-8.51,15.39l-5.8,30.54-27.54,19.42-1.05.16c-.63.1-1.25.14-1.83.14-2.88,0-5.35-1.21-6.96-3.4l-16.33-23.64-.2-.55c-1.23-3.39-.21-6.3.46-8.22.21-.6.41-1.18.47-1.56.51-3.16,1.16-6.58,1.79-9.89,1.14-5.97,2.32-12.14,2.78-17.4.02-.24.04-.48.07-.72.05-.48.12-1.18.09-1.52l-21.11-29.51c-1.03.26-2.38.69-3.32.99-.48.15-.95.3-1.42.45l1.1,2.42-13.09,75.2,27.05,38.92c.45-.04.9-.06,1.34-.06,6.09,0,11.49,3.95,13.45,9.82,1.97,5.92-.04,12.2-5.12,16.01-2.53,1.89-5.45,2.9-8.46,2.9-3.75,0-7.4-1.59-10-4.35-2.69-2.86-4.03-6.66-3.79-10.7.09-1.55.58-2.93.97-4.04.01-.03.02-.07.04-.1l-30.95-43.98.17-1.67c.95-9.21,2.49-18.59,3.85-26.87.9-5.47,2.19-11.43,3.57-17.75,2.29-10.55,4.66-21.46,5.11-30.04.03-.5-.04-.96-.15-1.32l-33.09,12.25c1.73,2.91,4.56,6.32,7.31,9.65,3.41,4.12,6.94,8.39,8.92,12.33.63,1.25,1.43,2.85,1.37,5.04v.31s-10.65,62.71-10.65,62.71c9.46,14.05,20.38,30.04,31.84,45.03ZM688.03,201.99l36.48-25.72-70.34-100.46c-9.05-4.25-18.68-7.72-28-11.08-2.42-.88-4.85-1.75-7.27-2.64l-12.4-3.51c2.75,4.04,5.35,7.87,8.38,11.27,4.63,1.14,9.43,1.83,14.49,2.56,7.74,1.12,15.75,2.27,23.28,5.18l1.27.49,48.85,69.56.11.21c1.08,1.94,1.85,4.96-.65,8.28-.92,1.23-16.8,13.03-20.13,13.33l-.57.05-31.14-5.13c6.46,11.34,9.71,23.64,11.66,33.3l25.98,4.32ZM532.81,186.79c1.07-.42,2.32-1,2.93-1.28.46-.21.86-.4,1.18-.54,6.32-2.75,12.9-6.3,18.5-9.4,4.15-2.3,8.3-4.96,12.3-7.52,3.76-2.41,7.61-4.87,11.59-7.13l-31.46-45.02c-.12,0-.24,0-.36,0-5.53,0-10.17-2.54-12.73-6.98-2.58-4.47-2.6-10.21-.05-14.64,2.47-4.28,6.94-6.73,12.26-6.73,1.17,0,2.4.12,3.65.35,3.51.66,6.41,2.8,8.16,6.02,2.26,4.16,2.31,9.3,1.3,13.34l32.2,45.16c2.27-1.43,5.62-3.86,7.88-5.5,4.84-3.51,7.45-5.37,9.3-6.02.07-.02.14-.05.21-.07-.16-.23-.29-.41-.37-.53-5.07-7.44-10.47-14.9-15.68-22.12-6.1-8.43-12.4-17.14-18.3-25.98-.21-.01-.44-.02-.64-.03-2.54-.11-7.26-.32-10.94-6.26-2.83-4.57-3.03-9.76-.53-14.25,2.56-4.6,7.54-7.58,12.69-7.58,4.49,0,8.5,2.2,11.29,6.19,4.6,6.59,2.3,11.69,1.13,14.19l42.7,60.52c12.04,2.53,24.41,4.62,36.39,6.65,3.93.67,7.87,1.33,11.8,2.01,1.45-.69,4.33-2.53,6.51-4.06l-41.51-58.8-38.38-7.31-22.05-30.72c-11.16-3.11-23.72-5.78-35.55-7.54-13.49-2.01-28.8-3.45-41.99-3.93-2.45-.09-5.08-.13-8.04-.13-3.64,0-7.36.07-10.96.13-3.45.06-7.02.13-10.55.13,0,.01.02.03.03.04.27.39.49.7.63.9,5.66,8.48,11.8,16.93,17.74,25.09,7.36,10.13,14.98,20.61,21.86,31.39l.8,1.26-.11,1.49c-.79,10.79-2.84,21.62-4.83,32.09-1.24,6.52-2.52,13.25-3.46,19.86l23.47,33.24ZM798.87,181.07c-33.02-37.49-72.98-68.85-116.86-91.76,6.11,8.62,12.14,17.27,18.04,25.75,13.03,18.71,26.5,38.05,40.49,56.45l.45.22,57.89,9.34ZM319.24,161.77c1.81-11.93,3.71-23.62,5.51-34.55.22-1.34.71-2.38,1.07-3.14.12-.26.29-.61.32-.73.13-.81.33-1.94.55-3.26.74-4.28,2.7-15.65,2.49-18.03-.05-.53-.1-.69-.12-.71l-15.6-21.97c-2.28.92-7.52,3.35-11.4,5.3,1.15.4,2.29.94,3.43,1.63,8.54,5.16,5.99,13.11,4.77,16.93-.15.48-.34,1.08-.47,1.53.18.21.39.45.55.63,1.6,1.82,3.79,4.3,3.7,7.59v.3s-.06.3-.06.3c-.61,3.72-1.35,7.48-2.07,11.11-1.41,7.18-2.87,14.6-3.37,21.78l10.7,15.29ZM281.8,129.28c5.19,0,10.11,3.02,12.64,7.72l3.76-22.6c-.34-.63-.76-1.4-1.14-2.06-1.08-.06-2.37-.16-3.58-.53-6.67-2.02-10.6-7.74-10.03-14.4-.79-.03-1.49-.12-2.07-.19-.5-.06-.92-.12-1.26-.12-.15,0-.27.01-.39.03-1.99.87-10.57,6.08-14.74,8.95l16.09,23.2c.24-.01.47-.02.71-.02Z"/>
        <path d="M487.74,9c161.42-.01,314.33,87.24,394.09,233.91,123.05,226.27,30.35,510.18-201.71,618.93-8.6,4.03-25.51,9.35-32.25,13.88-.24.16-.23,1.37-.83,1.37-.27,0-.66-.24-1.25-.93-11.67-19.94-24.11-41.13-42.76-55.41-1-.77-8.53-6.06-9.92-6.06-.08,0-.14.02-.18.06,2.28,15.67,4.48,31.57,2.01,47.35-1.24,7.88-3.94,15.94-6.49,23.48-4.25,12.53-9.8,24.78-14.62,37.08-1.89-5.09-2.56-10.48-4.74-15.49-6.18-14.21-25.73-36.21-36.47-48.21-52.75-58.93-117.81-104.33-174.26-158.48-1.02-.98-5.24-5.04-5.22-6.01.02-.67.3-.87.65-.87.43,0,.97.28,1.31.37,14.52,3.54,38.8,19.16,51.91,27.55,57.3,36.64,110.32,81.21,163.07,123.96.31.03.55.06.73.06.48,0,.48-.2.3-1.08-1.7-8.41-4.37-18.63-6.87-26.86-25.07-82.43-116.62-161-185.85-208.34-6.87-4.69-22.3-16.21-29.06-18.91-.6-.24-1.07-.47-1.67-.47-.17,0-.34.02-.54.06.05,7.07,4.4,12.88,7.93,18.67,11.35,18.62,26.54,34.31,40.77,50.66.12.83.1,1.17-.41,1.17-.17,0-.38-.04-.66-.1-6.12-1.45-16.93-7.12-22.66-10.32-29.77-16.61-50.99-39.95-75.93-61.97-1.13-1-3.09-2.57-4.51-2.98,3.11,10.81,11.58,20.51,18.43,29.53,11.69,15.39,24.4,29.96,38.16,43.53l.37,1.86-1.71,1.01c-40-8.57-71.92-32.07-96.03-64.39-9.26-12.41-16.44-26.16-25.16-38.9,1.21,6.69.8,13.71,1.59,20.51,2.16,18.75,7.84,38.88,13.61,56.83,2.51,7.8,6.68,16.4,8.77,24.22.34,1.26,1.31,1.43-.37,2.59-33.61-35.22-51.43-82.19-55.84-130.38-28.05,18.56-54.4,41.66-87.1,51.91-5.42,1.7-11.01,3.61-16.72,3.61-.61,0-1.22-.02-1.83-.07-.19-1.5,1.27-2.48,2.23-3.38,19.57-18.09,42.32-32.59,56.07-56.34,3.62-6.25,6.32-13.08,9.14-19.71-21.88,10.11-43.54,21.06-66.7,28.09-13.44,4.08-32.01,8.83-48.77,8.83-8.48,0-16.5-1.22-23.16-4.35-1.37-.64-7.07-4.22-7.5-5.24-.6-1.43.91-1.07,1.65-1.31,6.47-2.1,13.32-3.47,19.73-5.77,44.89-16.11,79.24-51.66,95.45-96.21-28.72-16.15-62.96-29.54-81.47-58.71-5.08-8.01-.37-4.77,4.99-8.97C83.35,203.56,205.59,72.13,362.85,26.72c41.45-11.97,83.47-17.72,124.89-17.72M476.13,36.93c-2.29,0-4.57-.03-6.86-.09-.92.89,3.5,6.8,4.33,8.03,12.73,19.07,27.19,37.05,39.55,56.4-1.3,17.82-6.11,35.58-8.51,53.42l26.08,36.94c.18.1.41.14.68.14,1.88,0,5.74-1.99,7.31-2.67,6.33-2.75,12.85-6.24,18.89-9.59,9.48-5.26,18.28-11.87,27.82-16.78l-.69-1.92-34.68-49.63c-.9.15-1.75.22-2.56.22-13.41,0-13.58-19.34-.52-19.34.88,0,1.82.09,2.82.28,6.81,1.28,7.47,10.49,5.32,15.72l35.54,49.85c.08.04.18.05.29.05,2.97,0,16.91-11.72,19.99-12.78.99-.34,2-.52,3.01-.52,1.27,0,2.52.28,3.7.86.49-.58-3.9-6.66-4.63-7.73-11.29-16.57-23.64-32.49-34.72-49.21-2.58-2.1-6.9,1.16-10.73-5.01-4.63-7.47,1.68-14.95,8.33-14.95,2.72,0,5.5,1.25,7.6,4.27,4.75,6.8-.83,10.22.03,12.65l44.82,63.53c16.91,3.62,34.05,6.26,51.16,9.24,1.98-.06,12.25-7.17,12.26-7.9l-44.94-63.66-38.4-7.31-21.92-30.54c-11.88-3.39-25.29-6.25-37.63-8.09-13.41-2-28.96-3.48-42.48-3.98-2.73-.1-5.46-.14-8.19-.14-7.35,0-14.73.26-22.08.26M419.52,139.45l20.36-13.59c-.28-5.27,6.44-26.24,4.47-29.65-.56-.96-3.78-2.44-4.29-5.05-.85-4.35,1.53-11.41,6.39-12.31.99-.18,1.93-.27,2.81-.27,11.95,0,14.21,15.71,2,19.49l-5.93,31.18-25.19,17.76c-.39.06-.78.09-1.16.09-1.31,0-2.49-.41-3.34-1.56l-15.93-23.05c-1.01-2.8.76-5.13,1.14-7.54,1.39-8.71,3.87-19.11,4.61-27.62.14-1.6.45-3.22-.31-4.75l-22.84-31.92c-.26-.14-.61-.2-1.02-.2-2.88,0-9.06,2.89-11.99,2.89-.17,0-.32,0-.47-.03l2.89,6.33-13.17,75.65,29.77,42.84c1.18-.36,2.3-.53,3.37-.53,8.98,0,13.54,11.81,5.63,17.74-1.84,1.38-3.84,2-5.76,2-5.1,0-9.66-4.33-9.3-10.28.12-2.04,1.67-4.42,1.21-5.56l-30.99-44.05c.92-8.89,2.37-17.78,3.82-26.6,2.4-14.63,8-34.18,8.73-48.29.14-2.74-1.06-5.9-3.73-6.69l-39.67,14.69c-.17.83.08,1.46.39,2.21,3.03,7.39,13.77,17.07,17.49,24.48.47.94.92,1.8.89,2.9l-10.89,64.17c10.98,16.31,22.17,32.68,34.12,48.2,6.6.69,11.36,3.86,12.03,10.82l37.39-3.67c-.04-2.3-2.75-3.07-3.41-5.2-2.08-6.76,2.03-13.58,9.1-13.58.22,0,.44,0,.66.02,2.27.13,4.62,2.04,6.06,2.04.12,0,.24-.01.34-.04l37.81-26.72,7.92-43.08c-.15-1.69-5.84-3.89-6.6-9.17-1-6.9,4.4-10.63,9.75-10.63s10.26,3.44,9.6,10.82c-.53,5.97-5.7,6.65-6.62,9.16l-8.05,45.91-40.54,29.22-2.53,9.02c8.48-2.26,17.28-3.7,25.93-5.16.37-.06.77-.08,1.17-.08.77,0,1.56.07,2.3.07.57,0,1.1-.04,1.57-.2,1.57-.51,3.25-5.89,8.56-6.49.33-.04.64-.05.94-.05,3.83,0,5.11,2.87,7.27,3.52.2.06.49.09.85.09,5.23,0,26.48-5.7,30.84-7.06,6.23-1.94,12.23-5.53,18.73-6.38l-.7-2.67-25.5-36.71.07-3.61,8.72-49.46-46.28-65.3c-.38,0-.76,0-1.13,0-23.86,0-47.45,5.65-70.82,10.13-.58.65,1.57,3.49,2.08,4.28,6.45,10.05,14.2,19.44,20.82,29.4-.13,13.18-4.94,26.15-5.65,39.36l13.2,18.33M681.7,164.97l-40.82-6.72c9.81,12.44,14.47,27.94,17.34,43.35l30.89,5.13,41.65-29.37-73.6-105.11c-11.94-5.71-24.48-9.89-36.88-14.45l-25.11-7.11c6.19,7.38,10.71,16.17,17.29,23.18,12.58,3.35,26.42,3.22,38.55,7.91l47.93,68.25c.71,1.28.54,2.25-.31,3.39-.74.98-15.92,11.46-16.94,11.55M283.96,92.94c-1.39,0-2.56-.32-3.83-.32-.55,0-1.11.06-1.71.23-1.98.55-18.61,10.77-18.91,11.95-.21.84.12,1.52.61,2.16l18.9,27.25c.94-.29,1.88-.43,2.79-.43,7.29,0,12.94,8.68,7.94,15.42-1.98,2.68-4.9,3.89-7.79,3.89-4.97,0-9.86-3.58-9.84-9.46,0-2.63,1.88-4.85,1.25-7.13-2.92-3.19-17.8-27.12-19.66-27.68-.05-.01-.1-.02-.17-.02-3.07,0-23.11,17.09-26.98,18.81l.29,2.12,20.3,28.43c11.5,3.26,23.75,3.17,35.12,6.85l45.49,65.07,28.31-5.17c-1.4-2.73,2.09-7.46,2.03-8.58-.02-.4-3.84-6.41-4.21-6.78-3.05-3.1-13.39-2.22-17.23-4.51l-39.61-56.34,5.83-35.03c-.39-.87-2.86-5.33-3.13-5.49-.74-.42-3.37-.18-4.96-.67-11.53-3.5-7.13-19.17,2.52-19.17,1.79,0,3.77.54,5.85,1.8,7.97,4.82,1.21,12.56,2.1,15.83.45,1.64,4.36,4.36,4.29,6.87-1.91,11.58-5,23.28-5.58,34.93l36.57,52.26,6.58.91-23.97-34.89c1.9-12.72,3.95-25.42,6.04-38.1.24-1.43,1.16-2.47,1.38-3.86.75-4.62,3.4-18.83,3.09-22.43-.09-1.04-.29-2.01-.91-2.88l-17.13-24.13c-.36-.23-.72-.31-1.09-.31-.79,0-1.58.41-2.3.69-2.94,1.12-15.66,7.04-17.56,8.67-2.61,2.24-1.88,5.94-6.72,8.27-1.59.76-2.86.97-3.99.97M810.25,187.46c-38.53-46.52-87.53-84.64-142.39-110.15,23.55,32.34,45.49,65.96,69.73,97.76l2.01.99,70.65,11.4M168.99,185.21c.13,0,.31-.03.54-.03.11,0,.22,0,.35.03,3.59.55,10.13.55,12.77,2.98,21.17,29.28,41.27,59.48,62.9,88.33l25.79-21.09c-17.73-24.75-34.56-50.4-52.89-74.56-.36,0-.72.01-1.08.01-4.33,0-8.36-.67-10.28-5.14-3.53-8.25,2.45-14.52,8.69-14.52,2.79,0,5.62,1.25,7.68,4.14,4.68,6.57-.85,9.57.81,12.61l52.39,73.63c.12.07.28.1.46.1,2.17,0,8.11-4.44,10.01-5.42,10.92-5.58,22.14-10.35,33.77-14.26.23-1.37-8.6-13.73-10.19-16.03-10.58-15.3-21.83-30.19-32.49-45.45-8.1-2.63-17.11-3.01-25.54-4.8l26.98,39.34c3.72,4.67,9.4,1.16,12.89,7.35,4.8,8.51-2.04,15-8.68,15-2.87,0-5.71-1.21-7.56-4.01-4.16-6.29.76-10.45,0-12.67l-55.48-77.95c-18.83,15.54-36.69,32.31-52.07,51.32-.13.95-.06,1.1.23,1.1M690.13,212.86c-5.95,0-25.8-4.55-30.37-4.55-.46,0-.77.05-.89.15-.28.84.71,1.55.75,1.87.76,6.52-.56,14.31,0,20.98l1.26.98c.09,0,.18,0,.28,0,4.17,0,16.84,3.85,22.06,3.85.85,0,1.5-.1,1.88-.34,1.35-.83,1.68-3.58,5.22-4.51,1.4-.37,2.68-.54,3.85-.54,12.61,0,11.69,19.66-.32,19.66-.26,0-.52,0-.79-.03-6.32-.44-5.96-4.51-8.66-7.14-2.85-2.77-19.98-3.27-24.74-4.81-1.94,22-6.5,44.06-14.27,64.81l1.11.36,68.21-47.95c3.41-3.4,1.66-11.69,4.43-15.8l34.19-24.26c.73-.25,1.55-.36,2.44-.36,5.09,0,12.43,3.46,17.07,3.46.39,0,.76-.02,1.1-.08,1.69-.26,3.94-4.1,8.53-4.1.32,0,.64.02.98.06,11.45,1.31,11.83,19.47-1.04,19.47-.57,0-1.16-.04-1.78-.11-7-.83-7.02-8.34-8.56-9.43-.71-.5-13.1-2.26-16.48-2.26-.37,0-.63.02-.76.07l-30.05,20.93c-2.35,4.31-1.15,12.32-4.42,15.81l-71.76,50.76c-2.57,4.98-1.2,10.63-1.73,15.89-.46,4.6-1.97,9.23-1.87,13.87,17.87-13.13,36.68-25.35,54.19-38.74-.25-7.02,4.38-10.04,9.17-10.04,6.28,0,12.85,5.19,9.09,13.31-1.85,4-5.18,6.11-8.73,6.11-2.31,0-4.72-.9-6.89-2.75l-59.38,41.6c1.31,5.22,4.31,8.98,5.71,14.34,2.58,9.89,2.12,20.25-.13,30.15-.8,3.51-7.32,19.47-7.09,20.53.23,1.09,3.21,1.54,4.28,1.72,7.86,1.36,21.78,2.51,28.66,5.06,2.12.79,2.91,1.91,1.87,4.12l-51.93,36.88c.29,7.58-2.7,13.51-9.88,13.51-.99,0-2.07-.11-3.23-.35-7.94-1.64-8.67-12.86-1.99-17.39,1.98-1.34,3.3-1.77,4.38-1.77,1.85,0,2.98,1.25,5.5,1.25.07,0,.14,0,.21,0,5.17-.14,36.91-26.98,44.37-30.41l.94-1.71-27.18-4.39c-10.56,10-24.39,15.47-36.45,23.56-41.49,27.86-78.54,71.17-76.93,124.01,9.7,1.98,19.99,2.56,29.23,5.99l68.25,97.37c2.49,2.06,6.19-1.15,10.42,4.57,4.96,6.72-.85,14.09-7.19,14.09-2.3,0-4.66-.97-6.62-3.29-4.16-4.95-.74-7.32-1.64-11.05-22.5-32.32-44.95-65.08-68.35-96.58l-24.43-4.42c2.46,30.64,14.31,59.23,31.3,84.48l10.66,14.44c-22.89-9.22-41.15-26.51-61.23-40.31-.59-.4-1.7-1.62-2.56-1.62-.25,0-.48.1-.67.35.52,3.24,1.66,6.69,3.14,9.6,4.4,8.64,15.12,22.34,21.31,30.4,17.38,22.65,38.28,42.26,56.48,64.18,8.65,10.41,16.41,21.66,24.38,32.57-.13-5,3.71-13.33,2.04-17.77l-32.77-46.67c-4.89-1.26-9.36-1.04-11.46-6.53-3.38-8.87,2.97-14.32,9.33-14.32,3.62,0,7.24,1.76,9.07,5.66,2.85,6.03-1.37,8.8-1.2,10.95.04.43,4.29,6.76,4.78,7.2,2.92,2.65,12.76,1.68,16.61,4.01l38.49,54.81c1.05,1.63.77,3.49.68,5.29-.44,9.19-4.67,20.16-5.17,29.36-.51,9.33,7.77,6.3,11.96,10.34,6.54,6.29,1.31,17.71-7.47,17.71-.14,0-.28,0-.43,0-2.07-.09-3-1.48-4.88-1.54,2.01,6.71,5.34,13.16,6,20.23.22.04.44.05.66.05.8,0,1.55-.21,2.35-.42,7.92-2.06,23.56-10.26,31.49-14.23,10.14-5.07,19.73-11.25,29.95-16.14-3.47-6.16-7.64-12.11-11.68-17.91-7.36-10.58-15.19-20.86-22.43-31.53-2.65-2.15-9.02,1.01-12.24-6.5-3.36-7.85,3.09-14.29,9.64-14.29,3.04,0,6.11,1.39,8.23,4.67,3.65,5.65-.58,9.88.55,12.87l34.28,48.16c4.71-3.35,36.26-23.63,37.04-26.7.19-.74-.06-1.09-.3-1.7-.49-1.23-11.58-17.32-12.53-17.86-.53-.3-1.23-.35-2.06-.35-.41,0-.86.01-1.34.01-1.86,0-4.15-.19-6.56-2.08-8.58-6.72-1.52-18.23,6.64-18.23,2.58,0,5.28,1.15,7.62,3.97,5.16,6.21.36,9.2,1.4,12.78l13.57,18.7c20.11-17.08,38.74-35.72,55.83-55.82-3.8-.5-17.17-4.02-22.72-4.02-.91,0-1.6.09-2.01.31-.91.48-2.12,3.28-5.03,3.93-1.16.26-2.24.38-3.24.38-12.68,0-12.19-19.67.15-19.67.5,0,1.01.03,1.54.1,6.07.75,7.36,7.85,9.35,8.69,2,.85,20.91,3.78,23.85,3.92.47.02.94.06,1.41.06s.96-.04,1.44-.19l19.97-26.5c.58-1.49-2.52-1.44-3.59-1.63-16.8-3.02-33.69-5.89-50.56-8.33-18.23,12.15-35.48,25.85-54.16,37.3l-59.21-10.52c-2.13,1.23-2.11,2.93-4.83,4.18-1.57.72-3.13,1.08-4.61,1.08-2.85,0-5.44-1.34-7.39-4.08-5.7-8,1.06-15.54,7.91-15.54,2.42,0,4.85.94,6.75,3.14,1.84,2.13,1.37,4.98,4.2,5.54l56.4,9.48,54.06-37.48c18.32,3.24,36.4,6.24,54.78,9.73.08,0,.17,0,.25,0,4.16,0,8.69-6.57,10.82-9.78,6.37-9.61,10.85-20.51,16.91-30.31.14-.93.05-1.09-.22-1.09-.14,0-.32.04-.55.04-.11,0-.23-.01-.35-.04-10.25-2.49-21.55-2.71-31.63-6.23l-37.72-53.33c-5.73-.5-42.51-8.63-49.11-8.63-.47,0-.78.04-.92.13-.77.46-1.3,3.12-4.62,3.99-1.29.34-2.47.49-3.56.49-12.26,0-12.04-19.58-.22-19.58.54,0,1.11.04,1.7.13,7.19,1.05,7.4,7.81,9.32,8.69l50.42,8.78c13.99,17.38,25.53,36.75,39.32,54.35l30,5.24c1.99-.34,4.06-5.71,5.02-7.77,9.16-19.66,17.41-43.66,23.06-64.62,1.84-6.83,3.72-14.3,4.16-21.32-6.31,3.51-11.6,8.89-18.04,12l-33.46-5.44-2.08-1.67-21.56-31.09c-26.78-4.96-53.69-9.13-80.53-13.71-3.42-.58-13.54-3.64-16.83-3.64-.19,0-.35,0-.49.03-.6.09-1.04,2-1.93,2.72-2.29,1.85-4.66,2.63-6.88,2.63-7.7,0-13.49-9.45-7-16.49,1.9-2.06,4.51-3.06,7.11-3.06,3.14,0,6.27,1.46,8.11,4.24,1.32,2,.3,3.7,3.65,4.59l97.82,16.85,1.36.89,22.01,31.2,29.17,5.73c3.95-3.61,21.23-13.02,22.62-16.99,3.31-19.58,5.69-39.35,6.34-59.23l-41.64,28.48-77.92-13.19c-2.85,2.84-6.35,5.14-9.89,5.14-2.1,0-4.21-.81-6.2-2.79-7.49-7.45-.4-17.05,7.17-17.05,2.49,0,5.02,1.03,7.12,3.51,1.21,1.43,1.33,4.31,2.72,4.78l75.52,12.83c14.62-9.17,28.9-19.64,42.76-29.97.71-13.75.63-27.8-.37-41.57-.58-8.1-1.49-18.31-3.02-26.22-.15-.77.32-1.19-.41-1.19-.16,0-.38.02-.67.06l-99.88,70.29c-23.48-3.08-46.59-8.51-70.07-11.72l-56.63,39.74c1.23,4.67-1.32,11.72-6.54,12.56-.96.15-1.86.23-2.71.23-13.26,0-12.86-17.79-1.76-18.94.38-.04.74-.06,1.08-.06,2.52,0,4.11.95,6.56,1.02l57.75-40.48c.9-.19,1.81-.26,2.72-.26,1,0,2.01.08,3.01.17,16.36,1.49,36.41,6.29,53.07,9.12,3.18.54,6.41,2.08,9.67,2.08.96,0,1.92-.13,2.89-.47l100.3-70.19c.73-1.26-1.02-9.55-2.36-11.2-11.78-15.51-21.65-32.58-34.4-47.29l-78.35-13.16c-2.03,3.58-4.94,5.03-7.82,5.03-7.03,0-13.92-8.64-7.66-16.4,1.68-2.08,4.64-3.14,7.57-3.14,2.52,0,5.01.78,6.66,2.34,2.21,2.1,1.88,6.06,5.57,6.42l78.03,13.4c1.62.54,2.97,2.87,4,4.24,8.43,11.19,15.27,23.76,24.42,34.4-6.56-27.57-15.6-54.51-26.92-80.43l-20.58-4.08c-2.68,3.01-6.23,5.2-9.83,5.2-2.18,0-4.38-.81-6.4-2.72-7.22-6.83-.92-17.01,6.91-17.01,2.05,0,4.21.7,6.25,2.34,2.04,1.64,2.94,5.43,3.53,5.84,2.08,1.49,13.14,1.61,16.31,3.16-4.14-9-8.42-18.15-13.34-26.75-1.41-2.47-11.16-18.77-12.12-19.38-.32-.21-.56-.29-.76-.29-.42,0-.67.36-1.18.64-2.36,1.3-19.26,13.58-19.65,14.84-.6,1.95.07,4.02-1.08,6.41-1.84,3.84-5.06,5.44-8.3,5.44-6.83,0-13.79-7.1-8.35-15.35,2.02-3.07,4.56-4.06,7.33-4.06,2.3,0,4.75.68,7.2,1.42l20.98-15c-6.51-10.04-13.51-19.83-21.28-28.9l-80.27-14.12-45.1,31.21c-.28.06-.67.09-1.15.09M136.53,227.93c.3-.05.65-.07,1.03-.07,4.52,0,14.01,3.02,18.67,3.02.87,0,1.57-.1,2.04-.35.91-.48,2.12-3.28,5.03-3.93,1.19-.27,2.29-.39,3.32-.39,13.13,0,12.61,20.49.03,20.49-.38,0-.76-.02-1.16-.06-7.71-.73-7.41-7.7-9.99-8.8l-24.1-3.82-28.45,54.39,28.72,40.44c12.72-4.7,24.45-11.95,37.86-14.74l-18.3-27.03c-5.65-1.2-11.67-2.46-12.44-9.29-.89-7.92,4.62-11.85,10.02-11.85,4.48,0,8.89,2.7,9.49,8.06.45,3.96-1.12,5.99-1.21,9.39l19.69,27.61,32.48-4.75c8.5-2.61,15.62-6.6,20.97-13.87l-25.02-4.33c-3.03,2.88-6.09,5.07-9.62,5.07-1.66,0-3.43-.48-5.34-1.61-8.83-5.18-4.3-18.98,5.35-18.98,1.39,0,2.88.29,4.46.93,3.56,1.44,4.64,6.64,6.74,7.5l28.48,5.24c1.18-.03,5.57-4.29,5.38-5.33l-61.36-87.07c-1.47-1.35-9.74-3.11-14.26-3.11-1.27,0-2.24.14-2.69.46-3.24,4.46-6.97,8.63-10.28,12.99-3.93,5.16-12.64,16.23-15.12,21.55-.36.78-.52,1.37-.39,2.23M509.15,270.59c-3.28,0-5.68-6.6-6.07-10.89-.35-3.86.66-6.39.69-9.62.03-3.62.43-26.31-.36-27.43-.35-.51-1.62-.7-3.27-.7-3.9,0-10,1.08-11.6,1.66-24.59,8.9-43.47,31.59-63.13,47.04-1.27,1-3.7,2.84-5.23,3.02-.26.03-.47.05-.62.05-.83,0-.27-.45-.52-1.17-1.75-5.24,6.03-13.68,8.17-18.83,4.84-11.66-2.7-14.44-11.57-14.44-5.19,0-10.84.95-14.72,1.64-36.65,6.48-82.32,16.24-114,35.88-24.64,15.28-41.49,40.08-58.07,63.34-20.04,28.11-39.58,57.34-51.09,90.16l59.22-23.59c1.51-.33,5.19-1.29,8.08-1.29,2.34,0,4.17.63,3.92,2.75-6.16,8.86-16.36,15.26-23.22,23.48-12.64,15.16-18.29,36.52-21.78,55.6l12.24-7.61c17.09-9.62,38.86-16.47,58.55-17.14.42-.01.82-.02,1.21-.02,2.68,0,4.56.44,6.65,2.67-2.11,5.22-6.23,5.55-10.39,8.32-11.35,7.57-22.79,16.8-27.04,30.28,18.08-3.08,35.37-9.95,53.89-9.95,1.88,0,3.77.07,5.68.22,2.05.16,12.76,1.9,13.12,3.37.21.85-.27,1.01-.77,1.47-2.25,2.07-11.27,5.61-14.72,7.76-5.02,3.14-10.81,7.1-12.98,12.87l40.29-8.05c.22-.01.43-.02.62-.02,2.91,0,3.74,1.22,4.75,3.99,3.06,8.38,4.16,18.72,8.25,26.97.96,1.93,1.91,3,2.82,3s1.68-.97,2.41-3.09c2.01-5.81,1.73-17.32,2.39-23.84.08-.8.24-4.24,1.55-4.24.07,0,.15.01.23.03,29.38,39.42,62.42,76.33,100.8,107.16.44-29.4,6.23-58.25,16.68-85.62,5.39-14.12,13.33-27,17.79-41.42-.46-.21-.96-.3-1.47-.3-3.29,0-7.4,3.87-9.42,5.9-3.46,3.46-17.13,23.32-18.71,24.01-.2.09-.38.13-.54.13-.56,0-.81-.52-.56-1.23,25.81-64.78,82.73-108.38,147.79-129.49,4.87-1.58,24.12-5.9,26.45-8.02,5.65-5.12-3.61-20.14-7.51-24.76-10.74-12.75-26.73-22.28-43.07-25.5-.3-7.99,5.81-22.48,1.36-29.46-.61-.95-1.3-2.02-2.51-2.02-.12,0-.24.01-.37.03-7.11,23.7-21.92,47.78-46.77,55.42-1.77-.51-1.31-5.47-1.19-7.08,2.31-29.8,14.53-67.95,40.5-85.39,6.26-4.2,13.84-4.33,20.9-6.82,12.19-4.3,21.93-12.2,28.13-23.56h0c1.12,0,2.99,11.37,3.28,13.19,1.44,9.03,3.08,19.11,1.24,28.03l-14.4,49.83c.12,1.13,7.05,5.38,9.12,5.38.17,0,.31-.03.41-.09,12.57-30.1,27.26-60.36,28.5-93.7.16-4.44.62-11.94-1.65-15.66-1.77-2.91-3.73-3.77-5.82-3.77-2.9,0-6.07,1.66-9.41,1.82-.28.01-.56.02-.84.02-11.75,0-21.03-11.81-30.34-17.6-9.87-6.14-18.95-8.84-27.24-8.84-21.57,0-37.78,18.23-48.8,41.34-4.39,9.21-7.08,22.93-11.77,30.95-1.47,2.51-2.87,3.5-4.14,3.5M104.58,340.85c2.54-1.05,19.85-8.02,19.93-9.12l-23.97-34.85c-.35-.03-.59-.1-.8-.1-.26,0-.46.11-.73.53-1.21,1.87-4.54,11.04-5.56,13.81-3.15,8.58-5.4,17.64-8.64,26.21l19.76,3.51M148.43,397.37c11.55,0,29.39-3.91,37.49-10.99.65-.57,2.26-1.39.82-2.2-1.86-1.05-6.47-1.31-11.61-1.31-4.82,0-10.11.22-14.05.22-1.52,0-2.84-.03-3.86-.13-2.12-.19-15.6-2.23-13.18-5.86,1.1-1.66,32.58-10.02,37.83-12.01,10.42-3.96,33.02-14.76,36.56-25.64.31-.96,1.49-6.24,1.26-6.56-3.25-1.34-6.71-1.91-10.23-1.91-9.62,0-19.79,4.2-28.01,8.21-17.78,8.68-32.5,18.21-51.85,24.59-10.48,3.45-23.83,5.3-33.55,9.17-6.96,2.77-4.7,6.02.75,8.99,10.27,5.59,37.61,14.7,49.09,15.36.8.05,1.65.07,2.53.07M631.88,815.48c3.56-5.41-2.53-6.41-3.01-11.59l5.86-34.33-36.22-51.49-6.35-1.51,23.66,33.69c.41.82.32,1.65.28,2.53-.27,6-5.21,20.42-4.33,25.42.4,2.26,9.68,16.37,11.54,20,2.87,5.63,4.53,12.47,8.58,17.27M487.78,0v9V0c-43.04,0-85.9,6.08-127.42,18.07-78.74,22.74-150.34,67-207.05,128-55.74,59.95-94.31,133.08-111.73,211.72-1.97.67-6.03,2.21-7.67,6.84-1.88,5.32,1.17,10.12,2.99,12.99,16.27,25.64,42.57,39.44,68,52.79,3.36,1.77,6.62,3.47,9.81,5.19-16.5,39.29-47.93,69.55-87.23,83.66-3.22,1.16-6.65,2.07-10.28,3.05-2.77.74-5.62,1.5-8.47,2.4-4.13.56-6.29,2.82-7.39,4.65-1.59,2.66-1.77,5.92-.5,8.95,1.12,2.67,3.22,4.43,6.7,6.75,1.54,1.03,3.84,2.47,5.27,3.14,7.34,3.46,16.42,5.21,26.99,5.21,14.15,0,30.96-3.02,51.39-9.22,15.55-4.72,30.44-11.15,44.89-17.81-9.15,14.07-21.93,24.78-35.41,36.07-5.53,4.63-11.24,9.42-16.72,14.48-.08.08-.17.15-.26.23-5.54,4.85-4.98,9.38-4.79,10.87l.91,7.31,7.34.55c.82.06,1.67.09,2.51.09,6.67,0,12.8-1.93,18.2-3.64l1.21-.38c25.93-8.13,47.77-23.69,68.89-38.74,2.75-1.96,5.54-3.95,8.35-5.93,3.02,20.27,8.32,39.61,15.82,57.68,9.99,24.05,23.67,45.28,40.67,63.09l5.31,5.56,6.32-4.37c4.61-3.19,6.05-8.22,3.77-12.95-1.32-4.74-3.21-9.53-5.05-14.16-1.38-3.49-2.68-6.78-3.67-9.86-3.14-9.76-7.1-22.75-10.02-36.2,1.36,1.98,2.75,3.95,4.2,5.89,12.99,17.41,27.85,31.92,44.17,43.14,17.44,11.98,36.68,20.28,57.18,24.67l3.44.74,3.03-1.79,1.71-1.01,5.49-3.25-1.25-6.26-.37-1.86-.54-2.71-1.96-1.94c-2.04-2.02-4.07-4.06-6.08-6.14,6.07,4.37,12.44,8.5,19.23,12.29,6.17,3.44,17.62,9.48,24.97,11.22.99.24,1.86.34,2.74.34,2.78,0,5.4-1.18,7.17-3.24,1.9-2.2,2.62-4.97,2.13-8.24l-.38-2.61-1.73-1.99c-2.79-3.21-5.66-6.43-8.43-9.55-8.88-9.99-17.38-19.55-24.78-29.85,1.47,1.04,2.77,1.95,3.9,2.72,45.71,31.26,154.99,113.67,182.32,203.53.25.83.51,1.68.76,2.53-.02-.02-.04-.03-.06-.05-46.1-37.53-93.76-76.33-144.46-108.76l-.61-.39c-18.35-11.73-39.1-24.54-53.62-28.22-.72-.26-2.11-.72-3.85-.72-5.35,0-9.5,4.14-9.65,9.62-.12,4.63,2.93,7.9,7.98,12.75,22.85,21.92,47.41,42.68,71.16,62.76,35.13,29.7,71.46,60.41,102.63,95.23,8.73,9.76,29.18,32.6,34.92,45.8.92,2.12,1.56,4.6,2.24,7.22.65,2.51,1.32,5.11,2.32,7.81l8.21,22.12,8.61-21.97c1.64-4.18,3.41-8.47,5.13-12.62,3.33-8.05,6.77-16.38,9.64-24.85,2.44-7.19,5.48-16.15,6.86-24.98,1.59-10.09,1.41-20.14.56-29.76,13.72,12.94,23.82,30.21,33.63,46.99l.41.7.53.62c2.32,2.7,5.04,4.07,8.08,4.07,2.49,0,5.6-1.1,7.65-3.96,3.96-2.11,10.7-4.7,16.29-6.85,4.84-1.86,9.41-3.62,12.96-5.28,57.65-27.01,107.91-64.92,149.39-112.66,19.88-22.88,37.55-47.91,52.53-74.42,14.82-26.23,27.12-54.08,36.54-82.78,9.47-28.85,16.11-58.75,19.72-88.87,3.65-30.43,4.24-61.3,1.74-91.75-5.2-63.56-23.42-124.43-54.13-180.91-39.58-72.79-98.28-133.44-169.76-175.41C649.57,21.85,569.27,0,487.78,0h0ZM485.14,45.84c.73-.01,1.46-.03,2.18-.04,3.58-.06,7.28-.13,10.88-.13,2.9,0,5.47.04,7.86.13,13.02.48,28.15,1.9,41.49,3.89,11.12,1.66,22.89,4.12,33.49,7.01l3.88,5.4c-2.72-1.62-5.8-2.5-9.02-2.5-6.75,0-13.28,3.88-16.62,9.89-3.12,5.61-3.04,12.28.18,18.02-2.2-2.06-4.93-3.45-8-4.02-1.52-.28-3.03-.43-4.48-.43-10.64,0-18.67,7.95-18.67,18.48,0,4.83,1.74,9.39,4.91,12.85,3.12,3.4,7.41,5.47,12.23,5.92l27.4,39.21c-2.57,1.56-5.08,3.17-7.54,4.75-4.13,2.64-8.03,5.14-12.06,7.37-5.5,3.05-11.96,6.53-18.11,9.21-.22.1-.48.21-.76.34l-20.31-28.76c.9-5.95,2.05-12.01,3.17-17.9,2.01-10.59,4.09-21.55,4.9-32.6l.22-2.98-1.61-2.52c-6.96-10.9-14.62-21.43-22.02-31.62-4.51-6.21-9.14-12.57-13.57-18.98h0ZM403.43,54.43c17.43-3.48,35.39-7.01,52.98-7.43l41.39,58.4-8.07,45.76-.12.69v.7s-.08,3.61-.08,3.61l-.05,2.91,1.66,2.39,20.11,28.95c-.61.25-1.21.5-1.79.74-2.16.9-4.2,1.75-6.13,2.34-5.52,1.72-20.71,5.57-26.49,6.47-1.88-1.43-5.08-3.42-9.8-3.42-.64,0-1.29.04-1.94.11-5.87.66-9.56,4.07-11.67,6.56-.66,0-1.27.05-1.87.13l23.34-16.82,2.97-2.14.63-3.61,7.57-43.17c2.51-1.93,6.57-5.6,7.2-12.66.51-5.68-1.13-10.9-4.6-14.69-3.45-3.77-8.54-5.93-13.97-5.93-5.76,0-11.1,2.35-14.65,6.45-1.26,1.46-2.25,3.09-2.96,4.85l2.16-11.39c6.54-4.11,10.09-11.29,8.93-18.95-1.4-9.24-9.18-15.7-18.92-15.7-1.45,0-2.95.14-4.45.42-4.03.75-7.64,3.2-10.17,6.92-3.08,4.53-4.42,10.8-3.41,15.97.68,3.46,2.6,5.9,4.3,7.52-.43,2.97-1.51,7.75-2.22,10.91-.87,3.89-1.55,6.93-1.96,9.43l-9.6,6.41-6.19-8.6c.47-4.55,1.41-9.19,2.38-14.05,1.46-7.26,2.97-14.77,3.04-22.64l.03-2.76-1.53-2.3c-3.2-4.82-6.65-9.5-9.98-14.02-2.09-2.84-4.12-5.59-6.07-8.34h0ZM368.07,133.2l12.18-69.98,16.31,22.8c-.02.18-.03.36-.05.54-.43,5.02-1.59,11.08-2.71,16.94-.63,3.32-1.29,6.74-1.8,9.95-.05.18-.19.57-.29.87-.77,2.21-2.21,6.33-.44,11.23l.4,1.1.66.96,15.93,23.05.07.11.08.11c2.48,3.38,6.24,5.23,10.59,5.23.81,0,1.65-.07,2.5-.19l2.1-.32,1.74-1.23,25.19-17.76,2.98-2.1.68-3.58,1.64-8.64c0,.97.07,1.96.21,2.96.73,5.07,3.55,8.56,5.83,10.77l-6.42,34.95-31.06,21.95c-1.26-.47-2.76-.87-4.44-.97-.39-.02-.79-.03-1.19-.03-3.54,0-6.89.95-9.76,2.71,1.7-4.06,1.92-8.66.44-13.1-2.47-7.4-9.11-12.47-16.73-12.87l-24.63-35.44h0ZM334.36,75.46l21.19-7.84c-.9,7.22-2.73,15.63-4.51,23.81-.58,2.65-1.14,5.24-1.66,7.76-.19-2.7-1.2-4.72-1.78-5.87l-.04-.08c-2.21-4.4-5.9-8.86-9.47-13.18-1.24-1.5-2.54-3.07-3.73-4.59h0ZM593.42,83.91c.79-2.23,1.44-5.35.67-9.03l7.02,9.78,2.1,2.92,3.53.67,34.83,6.63,37.78,53.52c-.33.2-.64.39-.93.56-3.44-.59-6.87-1.17-10.31-1.75-11.35-1.92-23.06-3.9-34.46-6.25l-40.24-57.04h0ZM311.39,85.2c.18-.08.35-.16.52-.24l12.77,17.98c-.16,3.29-1.78,12.68-2.42,16.38-.18,1.06-.35,2.01-.47,2.77-.01.03-.02.05-.04.08-.42.89-1.11,2.37-1.44,4.32-1.24,7.54-2.53,15.43-3.81,23.52l-3.35-4.79c.56-6.36,1.83-12.84,3.17-19.65.72-3.67,1.47-7.47,2.09-11.25l.1-.6.02-.61c.12-4.14-1.94-7.26-3.71-9.41.68-2.2,1.48-5.21,1.21-8.55-.23-2.87-1.28-6.65-4.65-9.97h0ZM564.87,106.23c.71-4.51.32-9.76-2-14.2,3.53,3.47,7.37,4.3,9.96,4.54,5.58,8.26,11.45,16.38,17.14,24.26,4.37,6.04,8.86,12.26,13.18,18.47-1.51,1.01-3.32,2.32-5.62,3.99-1.17.85-2.66,1.93-4.12,2.96l-28.54-40.02h0ZM271.33,107.33c2.69-1.71,5.77-3.58,7.94-4.82,1.31,6.39,5.99,11.52,12.91,13.62.38.12.76.21,1.13.29l-1.85,11.12c-2.41-1.48-5.14-2.41-7.97-2.68l-12.16-17.53h0ZM743.16,167.52c-13.59-17.95-26.71-36.79-39.42-55.04-2.25-3.23-4.52-6.49-6.81-9.77,33.07,19.4,63.53,43.72,89.95,71.86l-43.73-7.06h0ZM238.38,130.39c1.34-1.01,2.88-2.19,4.68-3.57,2.37-1.82,5.65-4.33,8.4-6.34,2.04,2.96,4.47,6.59,6.23,9.22,2.79,4.18,4.74,7.08,6.18,9.14-.38,1.28-.74,2.88-.75,4.75-.01,3.15.75,6.16,2.19,8.82-.11-.02-.22-.03-.33-.05-4.33-.61-8.46-1.2-12.41-2.11l-14.18-19.87h0ZM338.99,162.29l4.89-28.79c-.12,1.01-.23,2.02-.33,3.03l-.35,3.35,1.94,2.75,28.69,40.78c-.25.92-.46,1.97-.53,3.11-.32,5.29,1.45,10.28,5,14.05,3.45,3.67,8.29,5.77,13.28,5.77,3.54,0,6.99-1.04,10.03-3.01-1.1,2.68-1.61,5.61-1.47,8.57l-18.26,1.79c-2.72-4.65-7.27-7.92-13.21-9.41-10.62-13.99-20.77-28.8-29.68-42.01h0ZM211.43,152.74c2.5-2.25,5.08-4.51,7.73-6.78l6.59,9.26c-2.94-1.95-6.37-3.01-9.97-3.01-1.47,0-2.93.18-4.35.52h0ZM681.36,174.04l1.14-.1c2.34-.21,3.53-.58,12.86-6.98,9.01-6.18,9.69-7.08,10.47-8.13.17-.23.33-.45.48-.68l11.93,17.04-31.3,22.07-21.13-3.51c-1.56-7.11-3.83-15.32-7.45-23.49l21.86,3.6,1.13.19h0ZM289.97,160.32c1.05-.49,2.05-1.09,3-1.78l36.34,51.67,1.1,1.57,1.65.98c3.33,1.99,7.39,2.51,11.32,3.01,1.24.16,3.12.4,4.32.66.13.2.26.4.39.61-.02.06-.05.12-.07.18l-16.19,2.96-41.85-59.87h0ZM184.93,179.03c4.03-4.48,8.31-8.97,12.88-13.48-1.29,4.33-.97,9.12,1,13.72,3.46,8.07,10.4,10,15.05,10.45,10.43,13.93,20.57,28.55,30.39,42.72,4.86,7.01,9.85,14.2,14.88,21.33l-11.97,9.79c-10.77-14.64-21.32-29.73-31.57-44.4-8.34-11.93-16.96-24.26-25.64-36.27l-.54-.74-.68-.62c-1.16-1.06-2.44-1.87-3.8-2.51h0ZM233.62,175.58c.64-2.14,1.22-5.21.3-8.88l32.63,45.85c-.66,2.09-1.25,4.95-.75,8.25l-32.18-45.23h0ZM286.44,199.04l-14.31-20.86c.18.04.37.09.55.14,4.49,6.37,9.09,12.72,13.57,18.89.51.7,1.02,1.41,1.53,2.11-.14-.03-.28-.06-.41-.08-.29-.06-.64-.13-.93-.19h0ZM690.13,221.86c1.16,0,2.18-.1,3.11-.31l1.71-.38,1.44-1,42.06-29.11,73.41,12.91c4.55,5.49,9.1,11.55,13.74,18.34l-10.45,7.47c-1.73-.38-3.54-.63-5.42-.63-3.92,0-7.4,1.11-10.32,3.26.9-2.02,1.45-4.27,1.59-6.66.59-10.32-6.53-18.96-16.55-20.1-.67-.08-1.34-.11-2-.11-5.19,0-8.86,2.31-11.04,3.97-1.29-.27-3.02-.76-4.29-1.12-3.52-1-7.51-2.13-11.36-2.13-1.93,0-3.74.29-5.38.85l-1.22.42-1.05.75-34.19,24.26-1.34.95-.92,1.36c-.04.05-.07.11-.11.16-.71-2.65-1.96-5.09-3.7-7.13-3.35-3.94-8.21-6.1-13.7-6.1-1.97,0-4.03.28-6.13.83-3.46.91-5.75,2.68-7.24,4.28-2.31-.38-5.45-1.08-7.78-1.6-1.66-.37-3.14-.69-4.47-.97.03-.84.07-1.71.11-2.58.05-.99.09-1.99.13-3,.98.18,1.94.35,2.8.51,8.8,1.6,14.84,2.65,18.54,2.65h0ZM150.63,220.98c2.49-3.44,5.21-6.98,6.97-9.28.59-.77,1.13-1.47,1.6-2.09,1.36-1.79,2.8-3.55,4.33-5.42,1.16-1.42,2.34-2.87,3.52-4.36,2.13.23,4.68.74,6.3,1.19l52.35,74.28-14.08-2.59c-1.47-2.39-3.85-5.82-8.2-7.58-2.59-1.05-5.23-1.58-7.84-1.58-8.64,0-16.02,5.82-18.38,14.49-2.28,8.4,1.12,16.94,8.47,21.26.65.38,1.31.73,1.98,1.04l-6.76.99-14.32-20.08c.48-1.93,1.05-4.68.65-8.24-1.06-9.3-8.81-16.05-18.44-16.05-5.57,0-10.82,2.29-14.38,6.28-3.63,4.06-5.26,9.59-4.58,15.58.67,5.93,3.72,10.61,8.82,13.54,2.32,1.34,4.76,2.14,7.1,2.74l9.44,13.94c-4.71,1.77-9.21,3.82-13.63,5.83-2.28,1.04-4.49,2.05-6.69,3l-21.41-30.15,22.9-43.77,13.98,2.22c1.88,3.37,5.72,8.65,14.29,9.46.67.06,1.35.1,2.01.1,10.62,0,18.63-8.34,18.63-19.39s-8.02-19.1-18.65-19.1c-1.71,0-3.49.21-5.3.61-3.19.72-5.49,2.38-7.05,3.85-1.08-.17-2.38-.43-3.63-.69h0ZM509.15,279.59c3.31,0,8.06-1.38,11.91-7.95,3.08-5.25,5.24-11.97,7.33-18.47,1.51-4.69,3.08-9.54,4.8-13.15,7.87-16.52,21.32-36.22,40.67-36.21,6.95,0,14.51,2.52,22.49,7.48,2.33,1.45,4.89,3.55,7.6,5.77,4.25,3.48,9.12,7.47,14.75,10.14h-3.01l-2.56,4.69c-5.02,9.19-12.83,15.71-23.23,19.39-2.06.73-4.35,1.24-6.77,1.79-5.04,1.14-10.76,2.43-16.15,6.05-29.02,19.49-42,60.39-44.46,92.17v.17c-.1,1.11-.26,3.16-.11,5.28.58,8.03,5.62,10.34,7.75,10.96l2.59.75,2.57-.79c13.34-4.1,24.95-12.44,34.51-24.78.78-1.01,1.55-2.05,2.31-3.12l.1,2.77,6.99,1.38c14.27,2.81,28.45,11.21,37.93,22.46,2.81,3.33,5.89,9.08,6.86,12.44-3.71,1.19-9.94,2.81-13.36,3.7-3.67.95-6.57,1.71-8.35,2.29-34.94,11.33-65.77,28.18-91.65,50.06-28.01,23.68-48.78,52.17-61.73,84.67l-.08.2-.07.2c-1.1,3.18-.65,6.52,1.22,9.14,1.8,2.52,4.73,4.02,7.85,4.02,1.39,0,2.75-.29,4.07-.85-.04.11-.08.21-.12.32-8.77,22.94-14.24,46.54-16.33,70.37-29.45-25.61-57.56-56.55-85.53-94.07l-1.84-2.47-2.97-.82c-.86-.24-1.75-.36-2.63-.36-3.17,0-7.25,1.71-9.24,6.39-1.13-2.94-4.16-9.18-12.94-9.18-.34,0-.7,0-1.08.03l-.66.03-.65.13-2.61.52c2.09-3.16,1.66-6.42,1.29-7.89-1.58-6.43-8.32-7.87-12.78-8.83-3.21-.69-6.84-1.24-8.36-1.37-2.09-.17-4.24-.25-6.39-.25-11.84,0-22.98,2.51-33.74,5.16,3.72-3.35,7.87-6.32,11.89-9.01.73-.49,1.59-.92,2.59-1.41,3.33-1.66,8.37-4.16,11.15-11.03l2.16-5.33-3.94-4.2c-4.58-4.88-9.47-5.51-13.21-5.51-.48,0-.99.01-1.51.03-18.18.62-39.09,6.28-57.08,15.32,3.23-11.27,7.94-22.6,15.28-31.41,2.6-3.12,5.95-6.1,9.49-9.25,4.99-4.44,10.16-9.04,14.2-14.86l1.29-1.86.26-2.25c.38-3.28-.58-6.39-2.68-8.76-2.38-2.67-5.8-4.02-10.18-4.02-3.47,0-7.09.83-9.26,1.33-.28.06-.52.12-.72.16l-.74.16-.7.28-39.61,15.78c11.43-24.8,26.95-47.45,42.14-68.77.9-1.26,1.79-2.52,2.69-3.79,15.25-21.45,31.02-43.63,52.79-57.13,30.12-18.68,75.05-28.34,110.83-34.67,2.97-.53,8.5-1.5,13.15-1.5,1.83,0,3.06.15,3.86.31-.12.44-.31.99-.6,1.68-.39.93-1.56,2.77-2.59,4.39-3.48,5.47-7.76,12.19-6.21,19.27.15,2.84,1.49,4.76,2.37,5.73,1.04,1.14,3.34,3.06,7.09,3.06.52,0,1.06-.04,1.7-.11,3.65-.44,6.96-2.72,9.72-4.88,6.05-4.76,12.05-10.19,17.85-15.44,13.3-12.04,27.05-24.49,42.68-30.18.57-.17,1.88-.43,3.38-.66.03,3.54,0,8.81-.09,16.64-.01.84-.02,1.5-.02,1.92,0,.72-.12,1.53-.27,2.55-.3,2.06-.68,4.63-.37,7.96.69,7.67,5.27,19.08,15.03,19.08h0ZM296.53,231.85c1.69-1.39,3.13-3.05,4.23-4.93,1.16-1.98,1.9-4.1,2.22-6.3.11.16.23.33.34.49.2.29.5.72.89,1.27,1.33,1.89,2.45,3.51,3.39,4.88-3.7,1.43-7.4,2.96-11.07,4.58h0ZM631.45,230.25c.42,0,.84-.01,1.27-.03,2.65-.13,4.94-.76,6.78-1.27.17-.05.35-.1.54-.15.42,2.46.23,7.12.17,8.83l-.03.88c-.38,10.23-2.16,20.29-4.8,30.2.01-7.05-1.11-14.04-2.13-20.47l-.04-.27c-.11-.69-.7-4.3-1.41-7.71-.43-2.04-.83-3.65-1.21-4.91-.75-2.44-1.81-4.17-2.97-5.38,1.25.18,2.53.28,3.85.28h0ZM732.36,248.95l25.2-17.56c2.25.21,5.65.65,8.27,1.05,1.76,3.79,5.53,9.46,13.73,10.44.96.11,1.91.17,2.84.17,4.24,0,8.06-1.25,11.13-3.44-2.78,5.56-2.79,11.57.03,16.81,3.31,6.15,10.06,10.13,17.2,10.13s13.24-3.94,16.42-10.54c1.11-2.31,1.45-4.42,1.57-6.03,2.46-1.97,6.65-5.09,10.1-7.57,2.8,4.52,6.16,10.14,7.19,11.94.61,1.07,1.21,2.15,1.81,3.24-2.16-.86-4.43-1.3-6.75-1.3-7.7,0-14.84,4.95-17.77,12.31-2.82,7.09-1.03,14.85,4.67,20.24,3.59,3.39,7.94,5.18,12.59,5.18,4.29,0,8.66-1.6,12.52-4.49l11.49,2.28c3.72,8.75,7.17,17.62,10.35,26.59-.78-.5-1.65-.93-2.62-1.25l-.65-.22-.67-.12-75.71-13c-.66-1.34-1.62-2.97-3.21-4.48-3.27-3.1-7.84-4.81-12.86-4.81-5.85,0-11.29,2.42-14.57,6.48-4.79,5.93-5.78,13.38-2.65,19.92,3.18,6.66,10.14,11.13,17.31,11.13,4.28,0,8.22-1.52,11.4-4.31l70.04,11.76c6.46,7.78,12.19,16.16,18.22,24.99,4.26,6.24,8.67,12.69,13.36,18.9.17.46.35,1.13.53,1.85l-94.34,66.01c-.77-.12-1.88-.45-2.88-.74-1.4-.41-2.99-.87-4.74-1.17-5.48-.93-11.28-2.07-17.43-3.27-12.29-2.41-25-4.9-36.34-5.93-1.12-.1-2.43-.21-3.82-.21-1.65,0-3.15.15-4.59.46l-1.79.38-1.5,1.05-54.69,38.34c-1.19-.26-2.66-.51-4.45-.51-.66,0-1.33.04-2,.1-9.82,1.01-16.83,9.38-16.31,19.46.45,8.66,7.11,17.43,18.99,17.43,1.34,0,2.73-.11,4.14-.34,4.46-.72,8.38-3.36,11.04-7.44,1.83-2.81,2.95-6.13,3.27-9.47l13.39-9.4c-1.61,4.39-1.52,9.2.41,13.62,3.03,6.92,9.8,11.39,17.25,11.39,4.45,0,8.79-1.6,12.53-4.63.04-.03.08-.06.11-.09,1.85.43,3.98.96,5.42,1.33,2.64.67,4.93,1.25,6.54,1.53,9.18,1.57,18.52,3.11,27.55,4.6,16.16,2.67,32.83,5.42,49.22,8.41l19.44,28.04.75,1.08,1.03.82,2.08,1.67,1.84,1.48,2.33.38,33.46,5.44,2.8.46,2.56-1.23c.38-.18.76-.37,1.13-.57-6.01,22.18-14.15,44.97-22.37,62.61-.16.33-.34.74-.54,1.2-.07.15-.15.34-.24.55l-21.09-3.68c-5.63-7.38-11.01-15.18-16.24-22.76-6.65-9.64-13.52-19.6-21.06-28.97l-2.13-2.64-3.34-.58-46.52-8.1c-1.88-3.28-5.69-8.27-13.47-9.41-1.01-.15-2.01-.22-2.99-.22-10.21,0-17.91,8.08-17.91,18.79,0,4.66,1.54,9.09,4.33,12.47,3.37,4.08,8.27,6.32,13.8,6.32,1.89,0,3.85-.26,5.84-.78,2.87-.75,4.94-2.12,6.41-3.49,6.01.87,18.01,3.23,25.78,4.76,6.73,1.32,11.66,2.29,15.05,2.87l35.5,50.19,1.66,2.35,2.72.95c6.76,2.36,13.64,3.36,20.29,4.33.62.09,1.24.18,1.85.27-.69,1.32-1.38,2.64-2.05,3.94-2.87,5.55-5.59,10.79-8.79,15.61-2.09,3.16-3.45,4.71-4.24,5.46-11.97-2.25-23.96-4.33-35.58-6.34-5.64-.98-11.29-1.96-16.97-2.96l-3.65-.65-3.05,2.11-51.05,35.4-49.62-8.34c-.48-.95-1.14-2.02-2.06-3.08-3.48-4.03-8.3-6.25-13.56-6.25-7.12,0-13.83,4.07-17.07,10.37-3.15,6.11-2.46,13.36,1.84,19.39,3.61,5.07,8.84,7.86,14.72,7.86,2.79,0,5.6-.64,8.35-1.9,1.78-.82,3.11-1.79,4.09-2.69l54.63,9.71,3.36.6,2.91-1.78c10.23-6.27,20.08-13.22,29.62-20.05-1.31,2.65-2.04,5.69-2.04,8.98,0,4.69,1.59,9.13,4.47,12.5,3.4,3.97,8.31,6.15,13.84,6.15,1.69,0,3.44-.2,5.22-.61,3.2-.72,5.5-2.39,7.06-3.86,1.07.13,2.35.34,3.71.59-11.76,12.97-24.25,25.31-37.3,36.86l-5.71-7.88c.9-3.35,1.77-9.37-3.85-16.14-3.87-4.65-9.03-7.22-14.54-7.22-8.12,0-15.74,5.62-18.51,13.67-2.63,7.63-.21,15.54,6.32,20.65,3.98,3.12,7.94,3.83,10.88,3.96,1.76,2.41,4.3,6.05,6.28,8.97-6.41,4.8-18.35,12.78-23.62,16.29l-27.29-38.35c.8-3.24,1.8-8.98-2.23-15.21-3.61-5.58-9.36-8.78-15.79-8.78s-12.89,3.4-16.5,8.87c-3.51,5.32-4.03,11.86-1.42,17.96,3.86,9.02,11.28,10.45,15.01,10.85,3.56,5.15,7.24,10.23,10.81,15.17,3.23,4.45,6.56,9.06,9.73,13.61l.44.64c1.96,2.82,3.96,5.69,5.87,8.58-2.63,1.43-5.2,2.89-7.74,4.32-4.62,2.61-8.98,5.07-13.48,7.32-1.06.53-2.26,1.13-3.55,1.79-5.34,2.7-13.21,6.68-19.47,9.33,4.34-2.07,7.88-5.79,9.81-10.58,2.99-7.42,1.36-15.37-4.24-20.77-3.06-2.94-6.65-3.98-9.12-4.64.34-3.49,1.27-7.51,2.26-11.73,1.26-5.39,2.55-10.96,2.82-16.41,0-.19.02-.38.03-.56.13-2.14.38-6.13-2.14-10.03l-.1-.15-.1-.15-38.49-54.81-1.09-1.55-1.62-.98c-3.51-2.12-7.71-2.6-11.78-3.06-1.1-.12-2.59-.29-3.64-.48-.19-.27-.39-.57-.59-.87,1.17-3.11,2.09-7.97-.7-13.89-2.55-5.4-7.35-9.14-13.05-10.37l-4.92-6.67-10.54-14.28c-14.99-22.31-24.46-45.22-28.25-68.26l8.91,1.61c18.73,25.33,37.13,51.83,54.94,77.49,3.13,4.51,6.26,9.02,9.39,13.51-.56,2.96-1.13,8.25,3.87,14.2,3.52,4.19,8.32,6.5,13.5,6.5,6.75,0,13.11-3.95,16.19-10.07,3-5.94,2.34-12.81-1.76-18.37-4.28-5.79-9.2-6.99-12.31-7.28l-66.22-94.48-1.61-2.29-2.62-.98c-7.05-2.62-14.28-3.73-21.27-4.8-.69-.11-1.38-.21-2.05-.32,2.13-49.41,40.97-85.59,64.76-103.22-1.97,3.87-2.68,8.4-1.81,12.8,1.39,7.01,6.5,12.24,13.34,13.65,1.73.36,3.43.54,5.05.54,5.24,0,9.81-1.86,13.2-5.39,3.01-3.13,4.87-7.34,5.48-12.34l48.34-34.34,1.93-1.37,1.01-2.14c1.97-4.2,1.36-7.59.5-9.69-1.26-3.09-3.75-5.35-7.38-6.69-5.75-2.14-14.47-3.3-22.17-4.33-.77-.1-1.53-.2-2.27-.31.07-.2.15-.39.22-.58,2.18-5.84,3.54-9.53,4.03-11.68,2.79-12.3,2.81-23.88.06-34.41-.91-3.49-2.26-6.29-3.45-8.77l48.94-34.28c2.05.75,4.18,1.13,6.36,1.13,7.18,0,13.66-4.34,16.9-11.32,2.79-6.02,2.54-12.38-.7-17.44-3.41-5.34-9.75-8.65-16.55-8.65-2.02,0-3.96.29-5.78.85l22.98-16.25.75-.53.62-.67c3.81-4.06,4.5-9.36,5.05-13.61.1-.79.24-1.82.39-2.67h0ZM279.68,240.31l-4.19-5.88c2.52,1.3,5.36,1.99,8.38,1.99,1.18,0,2.36-.11,3.51-.32-1.45.71-2.9,1.43-4.34,2.17-.97.5-2.03,1.18-3.36,2.04h0ZM661.41,282.13c2.73-10.7,4.8-21.83,6.2-33.3.18.02.36.04.55.07,2.88.34,7.86.94,10.35,1.53,1.55,2.7,4.78,8.3,13.93,8.94.42.03.85.05,1.28.05l-32.31,22.71h0ZM656.13,315.53l37.54-26.55c-1.28,1.75-2.48,4.09-3.08,7.11-8.9,6.67-18.24,13.19-27.32,19.51-2.41,1.68-4.84,3.37-7.28,5.08,0-.11,0-.22,0-.33-.03-1.85-.06-3.52.15-4.83h0ZM96.71,330.31c.42-1.34.83-2.66,1.24-3.98,1.27-4.1,2.46-7.98,3.84-11.77l9.46,13.76c-2.01.86-4.52,1.92-7.66,3.21l-6.88-1.22h0ZM150.57,365.09c6.79-3.15,13.17-6.53,19.43-9.86,4.97-2.64,10.1-5.36,15.4-7.95,5.91-2.89,14.41-6.65,22.1-7.22-5.01,5.12-16.78,12.05-28.82,16.62-1.62.62-7.75,2.4-13.16,3.97-4.91,1.43-10.43,3.03-14.94,4.43h0ZM110.06,378.07c2.16-.54,4.37-1.06,6.56-1.57,5.3-1.24,10.79-2.52,15.81-4.17,1.92-.63,3.8-1.3,5.64-1.99-.57.52-1.06,1.1-1.51,1.78-2.08,3.12-2.37,6.98-.77,10.3,1.06,2.21,2.75,3.82,4.7,5.02-8.59-1.73-21.12-5.69-30.42-9.39h0ZM805.24,476.23l2.87-2.02,88.71-62.42c.4,3.76.77,8.01,1.12,12.77.85,11.76,1.03,23.93.55,36.25-11.48,8.53-23.57,17.31-35.86,25.19l-57.87-9.83.49.06h0ZM613.22,446.92c1.71-.99,3.45-1.97,5.24-2.97,7.17-4.03,14.55-8.18,21.24-13.74l2.22.36c-1.08.81-2.21,1.67-3.39,2.55-6.26,4.72-16.28,12.29-20.52,14.71-1.12-.4-2.74-.9-4.79-.92h0ZM716.69,477.47l18.43-12.93c10.07,1.47,20.25,3.35,30.13,5.17.49.09.98.18,1.47.27-2.37,2.01-4.3,4.58-5.52,7.55-1.98,4.79-1.83,9.83.28,14.35l-28.54-4.92c-.2-.39-.44-.79-.71-1.2-3.41-5.17-9.21-8.26-15.53-8.29h0ZM868.11,511.71l3-2.05,26.51-18.13c-.98,11.83-2.57,24.3-4.78,37.7-2.29,1.96-7.62,5.42-10.68,7.4-2.26,1.47-4.12,2.68-5.66,3.74l-21.68-4.26-19.93-28.25-.98-1.39-1.1-.73,31.72,5.37,3.58.61h0ZM553.93,692.22c-7.49-8.23-14.9-16.68-21.62-25.43l-1.45-1.89c-.18-.23-.36-.47-.55-.71,8.86,6.31,18.16,12.21,28.42,16.7-.59.64-1.14,1.32-1.64,2.04-1.92,2.78-2.98,5.94-3.16,9.29h0ZM776.33,697.27c2.7-1.9,5.42-3.79,8.13-5.63,11.01,1.63,22.9,3.57,36.65,5.97l-9.04,12c-4.16-.53-12.71-1.87-17.05-2.71-1.92-3.14-5.85-8.68-13.46-9.62-.89-.11-1.78-.17-2.65-.17s-1.74.06-2.58.17h0ZM620.68,776.2c.14-1.88.96-5.61,1.66-8.61l2.89,4.11-1.63,9.54c-1.19-1.97-2.31-3.88-2.93-5.05h0Z"/>
      </g>
      <g>
        <path class="cls-1" d="M293.04,332.69c-1.94,0-3.63-1.08-4.41-2.81-1.22-2.71-.5-5.24,7.13-13.88,25.57-28.94,63.71-46.93,99.51-46.93,4.78,0,9.56.32,14.2.94,6.77.91,9.22,4.17,10.09,6.74,2.52,7.47-5.71,16.54-13.64,24.46-.52.52-.97.97-1.34,1.35-.41.42-.88,1.02-1.38,1.66-1.82,2.32-4.31,5.49-8.69,6.1-.67.09-1.41.14-2.24.14-2.62,0-5.8-.46-8.88-.9-2.23-.32-4.54-.65-6.04-.7-3.07-.1-6-.15-8.72-.15-29.49,0-44.22,5.84-70.95,22.29-1.96,1.21-3.31,1.7-4.64,1.7h0ZM374.75,290.84c.71.01,1.42.03,2.14.06,1.32.05,2.74.36,4.25.69,1.1.24,2.47.54,3.2.56.81-.39,2.19-1.47,3.7-2.76h-6.07c-1.87,0-4.42.56-7.21,1.44Z"/>
        <path d="M395.27,273.57c4.54,0,9.08.29,13.6.9,16.69,2.24-2.68,19.98-7.51,24.95-2.17,2.23-3.94,5.95-7.47,6.44-.48.07-1.02.1-1.62.1-4.21,0-10.94-1.48-14.78-1.6-3.1-.1-6.05-.16-8.87-.16-30.29,0-45.93,6.11-73.3,22.96-1.18.72-1.9,1.03-2.28,1.03-1.9,0,4.65-7.58,6.09-9.21,23.54-26.64,59.82-45.4,96.14-45.4M399.57,284.89h-17.61c-6.87,0-19.84,5.69-25.79,9.43-1.5.94-4.41,2.35-4.93,4.07,7.05-2.19,14.33-3.07,21.67-3.07,1.26,0,2.53.03,3.8.08,2.01.08,5.51,1.26,7.73,1.26.34,0,.66-.03.93-.09,3.13-.75,11.42-9.15,14.21-11.67M395.27,264.57v9-9h0c-18.77,0-38.41,4.71-56.79,13.61-17.53,8.49-33.47,20.54-46.1,34.83-6.52,7.38-10.59,12.67-7.86,18.71,1.5,3.32,4.84,5.46,8.52,5.46,2.78,0,5.1-1.2,7-2.37,25.92-15.96,40.18-21.63,68.59-21.63,2.67,0,5.55.05,8.57.15,1.26.04,3.44.36,5.55.66,3.24.47,6.58.95,9.52.95,1.04,0,1.98-.06,2.86-.18,6.18-.86,9.58-5.19,11.61-7.78.4-.51.82-1.05,1.07-1.3.36-.37.8-.81,1.3-1.31,9.28-9.28,18.07-19.16,14.72-29.08-1.04-3.09-4.22-8.47-13.75-9.76-4.84-.65-9.82-.98-14.8-.98h0Z"/>
      </g>
    </g>
  </g>
</svg>